/* XPM */
static char *_9bd5c632379459890a93a3e88e3aa14s4dyn6PliyppcPgr[] = {
/* columns rows colors chars-per-pixel */
"32 32 220 2 ",
"   c #0F0307",
".  c #0E0209",
"X  c #120506",
"o  c #190A07",
"O  c #15090A",
"+  c #1A0D0B",
"@  c #190706",
"#  c #1C120B",
"$  c #1F0F10",
"%  c #1F1412",
"&  c #230D08",
"*  c #221609",
"=  c #2A150C",
"-  c #2C1B0D",
";  c #26190D",
":  c #31170A",
">  c #391E0E",
",  c #301D0D",
"<  c #221513",
"1  c #2A1614",
"2  c #251914",
"3  c #2B1C15",
"4  c #261A18",
"5  c #2C1D1A",
"6  c #251719",
"7  c #301E1B",
"8  c #31210F",
"9  c #2E2114",
"0  c #2E211A",
"q  c #342314",
"w  c #3A2313",
"e  c #33241B",
"r  c #3C2B1B",
"t  c #3A2818",
"y  c #3B2B22",
"u  c #3B2C2A",
"i  c #362724",
"p  c #3F3020",
"a  c #432B16",
"s  c #4A2F17",
"d  c #442E1B",
"f  c #492817",
"g  c #46311D",
"h  c #4B331D",
"j  c #52331E",
"k  c #563A1F",
"l  c #5C381E",
"z  c #552911",
"x  c #65361C",
"c  c #422D22",
"v  c #412F2B",
"b  c #453223",
"n  c #4B3423",
"m  c #4D3925",
"M  c #44332C",
"N  c #4C362B",
"B  c #523423",
"V  c #533B23",
"C  c #5A3D25",
"Z  c #543C2B",
"A  c #5C3C2B",
"S  c #593723",
"D  c #4D3A35",
"F  c #493734",
"G  c #513733",
"H  c #523C32",
"J  c #653A26",
"K  c #5B401F",
"L  c #5C422B",
"P  c #5F4425",
"I  c #5C4534",
"U  c #574536",
"Y  c #63432C",
"T  c #6A452C",
"R  c #694B2D",
"E  c #674728",
"W  c #734B2D",
"Q  c #75452C",
"!  c #7D502E",
"~  c #654532",
"^  c #6C4732",
"/  c #644834",
"(  c #6C4B34",
")  c #6B4C3A",
"_  c #654939",
"`  c #724C34",
"'  c #714F3A",
"]  c #7D4E36",
"[  c #6A553D",
"{  c #745133",
"}  c #7A5134",
"|  c #73523B",
" . c #7B543D",
".. c #76593E",
"X. c #7B5A3B",
"o. c #644D44",
"O. c #6A5545",
"+. c #7B5B42",
"@. c #785A46",
"#. c #735D54",
"$. c #7A644A",
"%. c #7D6957",
"&. c #81593B",
"*. c #8C5B3A",
"=. c #875537",
"-. c #935937",
";. c #9A623B",
":. c #A1633B",
">. c #B3693C",
",. c #845C44",
"<. c #8C5A42",
"1. c #805740",
"2. c #846243",
"3. c #8C6343",
"4. c #85614A",
"5. c #89634D",
"6. c #856942",
"7. c #9A6C4C",
"8. c #956948",
"9. c #9A714B",
"0. c #80645C",
"q. c #956B54",
"w. c #8A7259",
"e. c #997457",
"r. c #A96C46",
"t. c #B46E44",
"y. c #A7754C",
"u. c #BC7748",
"i. c #A77654",
"p. c #AA7654",
"a. c #AD7A59",
"s. c #A47957",
"d. c #B47A5A",
"f. c #987F64",
"g. c #A87C64",
"h. c #B07A60",
"j. c #C37748",
"k. c #CC7E50",
"l. c #BA8355",
"z. c #B6875E",
"x. c #BE835A",
"c. c #A98768",
"v. c #B78362",
"b. c #BF8966",
"n. c #B28A6E",
"m. c #B78768",
"M. c #BE8D72",
"N. c #B69777",
"B. c #B38C6E",
"V. c #BDA076",
"C. c #C78558",
"Z. c #D58B59",
"A. c #DC925A",
"S. c #C68F69",
"D. c #C4936C",
"F. c #CC9369",
"G. c #CA986B",
"H. c #D99769",
"J. c #C48F75",
"K. c #CB9B73",
"L. c #C69878",
"P. c #DB9F74",
"I. c #D49D7B",
"U. c #D59C73",
"Y. c #E09162",
"T. c #E69B69",
"R. c #D0A26F",
"E. c #CDA17C",
"W. c #D3A47E",
"Q. c #D9A479",
"!. c #E7AA78",
"~. c #F1AC76",
"^. c #BC9B81",
"/. c #CA9D82",
"(. c #CAA883",
"). c #D9A484",
"_. c #D2AA8B",
"`. c #D9AB87",
"'. c #CDB18C",
"]. c #DDB688",
"[. c #D4B292",
"{. c #D6BC99",
"}. c #D8BB96",
"|. c #C9B094",
" X c #E4AD83",
".X c #F2AE80",
"XX c #E4B485",
"oX c #ECBC8E",
"OX c #E5B38D",
"+X c #F4B484",
"@X c #FBBB8B",
"#X c #E8B795",
"$X c #DEC39C",
"%X c #DEC396",
"&X c #E5C495",
"*X c #ECC494",
"=X c #E4C49A",
"-X c #E5CB9E",
";X c #EBCC9D",
":X c #E9C598",
">X c #F7C899",
",X c #E4CBA4",
"<X c #ECCEA2",
"1X c #E5CDA9",
"2X c #EBCCAA",
"3X c #E1C5A3",
"4X c #F4CEA5",
"5X c #EBD3A5",
"6X c #EBD4AB",
"7X c #EED9AE",
"8X c #E7D1AA",
"9X c #F3D9AD",
"0X c #F8D5A9",
"qX c #EED7B2",
"wX c #EED9B2",
"eX c #F2D7B3",
"rX c #F2DAB4",
"tX c #F5DDBA",
"yX c #F8DCB8",
"uX c #FAE2BE",
/* pixels */
"tXtXtXrX6X8X1X8X-XQ.H.H.T.T.~.+X~.H.T.T.T.Y.A.A.A.A.!.>X5X8X6XqX",
"uXuXtXrXqX6X2X;XR.C.k.Z..X+X!.P.P.F.S.F.P.H.H.Z.t.j.Z.!.>X<X6XwX",
"uXuXtXrXqX6X=XG.u.j.Y.@X>XXXD.i.a.p.b.F.K.Q. X!.C.t.>.j.P.:X6XwX",
"uXtXrXrX7X<XK.l.u.H.+X>XoX`.).I.d.p.D.).#XW.I.Q.U.x.:.r.C. X4X9X",
"uXyXrXrX9X&Xl.t.t.U.z.9.&.,.e.M.b.b.b.v.a.&.} <.8.p.r.-.:.K.>X0X",
"uXyXrXrX0X].y.;.r.} > = = = H / +.3.3.W k : & & = w ( &.-.d.*X0X",
"tXrXrXeX4XE.:.-.Q : 3 F F u 1 3 c d > w = e D D M 3 = / W r. X4X",
"tXrXtX{.[.D.;.*.s c M 1 4 1 + # 4 3 3 @ O < < < 5 u 7 b ` -.I.L.",
"tXeXyX(.2.i.=.=.j - < u < 6 1 3 e M y < $ i % O 1 @ 5 n Y =.d.! ",
"tXeXrX{.{ *.x =.T Z D D i M M n N Z N Z H H e i F v U I j J =.*.",
"rXrXrX3X3.Q z h.g.5.| ~ A / ' ..| | ~ / ) ) Z L I I _  .~ f ] i.",
"tXrXrX$X3.x J J.M.e.q.5.+. .2.2.3.9.&.,.1.| ( ( | / ( X.,.f J s.",
"tXrXrX$X} z <.d.h.5.T ^ ` ,.{ { s.L.c.,.` | | ~ C Y '  .,.S j s.",
"rXrX7X,X9.x <.=.<.,. . .+. .e._.#X2X_._.5.Y ) ~ ' ) ^ Y Y A C N.",
"rXrXrX8XN.l W Q ` ^ '  .4. .e.A c.^.g.A ) ' ( ' ( J B h h C C [.",
"wXeXrX6X'.X.R l S T ' 4. .( ~ @ 1 c = @ G B ' | Y S s a d L 4.{.",
"wXwXwX8X,Xf.Y s a V | 4.4.4.5.0.F o.c D o./ ' ' L h a w t V N.3X",
"wXwXwX6X1X{.| h a V | ,.g./.L./.L.n.n.n.e.8.X.E k d q - r $.{.1X",
"wXwXqX6X1X,X}.V d B ( q.J.).).OXE.E.L.W.D.v.7.E V g q - I |.,X,X",
"wXwXqXqX1X,X=XL g n  .n.J.I.OX#XE.W.L.`.D.a.7.} C h q - O.{.$X,X",
"wXwXwXwX8X-X=XR h V 5.n.n.L.L.(._._._.`.L.a.7.X.E s t w $.{.-X5X",
"wXwXwX7X5X;X%XX.k C +.| ( s a w n _ ~ n n Z / ) Y V d g w.$X-X5X",
"wX7X7X6X5X-X}.6.K V L a I #.%.o.o.G M F M F u 5 c n g h c.=X-X5X",
"7X7X6X6X5X<X&Xe.P L V g b b U O.%.w.f.%.[ U r q c n V L N.=X-X5X",
"7X9X6X5X5X;X&XV.P C V m b t - - - 3 ; * * * 3 r b n V ( `.:X;X5X",
"6X6X5X5X;X:X].(.E C m r r q 3 3 2 2 < < < 4 0 r p m V 6.W.].&X&X",
"5X5X<X;X;X*XoXb.W C n r q 9 9 3 4 4 < < < 4 5 e y M m 2.D.XXXXXX",
"6X<X<X0X0XoXU.y.E k g d r e q 3 4 4 4 < < 4 5 e y M g R 9.z.G.Q.",
"9X0X0X4XoXG.l.8.E h d r r e 9 3 4 4 < < < 4 5 e t r d L { *.;.y.",
"8X,X}.(.m.s.8.&.Y h r q 3 3 2 < % % % % < < 4 3 3 q r g V E E ( ",
"$.@.[ Y V V h a q ; * # o o o X         X X X X @ o # # - 8 8 q ",
"@.@.) Z Z N b r e 2 # # X X X   . . . . . . . X X O # # 2 9 q q "
};
