/* XPM */
static char *_b09f45552e14378ed03891f40366299ccTMqrUxPOHmFvqn[] = {
/* columns rows colors chars-per-pixel */
"32 32 26 1 ",
"  c #3EAC86",
". c #40AD87",
"X c #42AE88",
"o c #46AF89",
"O c #4BB18B",
"+ c #4DB28C",
"@ c #50B48E",
"# c #59B892",
"$ c #5FBB95",
"% c #63BD97",
"& c #64BE98",
"* c #68C09A",
"= c #6DC39D",
"- c #6EC59E",
"; c #71C69F",
": c #73C7A1",
"> c #74C7A1",
", c #75C9A2",
"< c #77CAA5",
"1 c #85CFAD",
"2 c #8BD2B1",
"3 c #8BD7B9",
"4 c #8CD8BA",
"5 c #8DD9BC",
"6 c #A3E0C2",
"7 c #A4E0C2",
/* pixels */
"::::::::::::::::::::::::::::::::",
"::::::::::::::::::::::::::::::::",
"::::::::::::::::::::::::::::::::",
"::::::::::::::::::::::::::::::::",
":::::::::::::,#,::::::::::::::::",
":::::::::::::,o,::::::::::::::::",
"::::::::::+.:,o,:.O:::::::::::::",
"::::::::::+ ,,X,, o:::::::::::::",
":::::::::::,o:::o,::::::::::::::",
"::::::::::::>:::>:::::::::::::::",
"::::::::::::::::::::::::::::::::",
"::::::::::::;:::::::::::::::::::",
":::::::::::;3:::::::::::::::::::",
"::::::::34:;3::4::::::::::::::::",
"::::::::45:;4:;5::::::::,:::::::",
":::::::::;<::;3:::::::::*,::::::",
"::::::::::::::;::::::+::*,:% :::",
":::::::::::::::::::::@::*,:%X:::",
":::::::::::::::::::::=o,::&$::::",
":::::::::::::::::::::=O,::&$::::",
"::::::::::::::::::::::::::::::::",
"::::::::::::::::::::::::::::::::",
"::::::::::::::::::::::::::::::::",
"::::::::::::::::::::::::::::::::",
"::::::::::::::::::::::::::::::::",
":::::::::::::::::::::::::::::::1",
"::::::::::::::::::::::::::::::;6",
":::::::::::::::::::::::::::27:;6",
"::::::::::::::::::::::::::::-7:;",
":::::::::::::::::::::::::::::6::",
"::::::::::::::::::::::::::::::::",
"::::::::::::::::::::::::::::::::"
};
