/* XPM */
static char *_2aaa612ea6045df8aae3f6b8cd0cf9f9nLAUivQnTJQ4Rzl[] = {
/* columns rows colors chars-per-pixel */
"64 64 17 1 ",
"  c #101010",
". c #632900",
"X c #842900",
"o c #BD6B00",
"O c #CE7B29",
"+ c #6BC079",
"@ c #D69452",
"# c #E6AD5A",
"$ c #297384",
"% c #5A9CA5",
"& c #65C686",
"* c #84D099",
"= c #96D7A9",
"- c #ABDFAE",
"; c #8CC5CE",
": c #D6CECE",
"> c white",
/* pixels */
"======*===============*===============*===============*=========",
"*====**===---===*====**===---===*====**===---===*====**===---===",
"====**==============**==============**==============**==========",
"=--==============--==============--==============--=============",
"=--===--=======*=--===--=======*=--===--=======*=--===--=======*",
"================================================================",
"======*=====-=========*=====-======%%%%%%%==-=========*=====-===",
"=====**==*=====*=====**==*=====*=%%%%%%%%%%====*=====**==*=====*",
"====**========**====**========*%%%;;;;;;;;;$$$**====**========**",
"=============**==============*%%;;;;;;;;;;;;;$$==============**=",
"==============================;;;;;;;;;;;;;;;;$$================",
"=*===*=====--====*===*=====--$;;;;;;;;;;;;;;;%%%$*===*=====--===",
"==========*===============*=$$;;;;;;;;;;;;;;;%%%$=========*=====",
"===--===***====&===--===***=$$;;;;;;;;;;;;;%%%%%%$=--===***====&",
"===--==**=====++===--==**==$$%%%;;;;;;;;;%%%%%%%$$$--==**=====++",
"-============&++-==========$%%%%%%%%%%%%%%%%%%%$$%$==========&++",
"======*===============*===$$%%%%%%%%%%%%%%%%%%%  %%===*=========",
"*====**===---===*====**===$%%%%%%%%%%%%%%%%%%%%  :%==**===---===",
"====**==============**====$%%%%%%%%%%%%%%%%%%%%   $=**==========",
"=--==============--=======....%%%%%%%%%%%%%%%%%  X$=============",
"=--===--=======*=--===--=.......%%%%%%%%%%%%%%%  X$===--=======*",
"=========================.:>>>>>..%%%%%%%%%%%%%  O$$============",
"======*=====-=========*=..oooo>>>>$$%%%%%%%%%%%%%$%$==*=====-===",
"=====**==*=====*=====**=...oooooo>>>..%%%%%%%%%%%%%$$**==*=====*",
"====**========**====**oo@@.@@@@@ooo>>>.%%%%%%%%%%%;  *========**",
"=============**======oo@@.o@@@@@@@o>>>.%%%%%%%%$%%%  ========**=",
"====================@@@@..@@@@@@@@@@>>>..%%%%%%%%%% ============",
"=*===*=====--====*..@@@@..@@@@@@@@@@..>>.%%%%%%%%% ==*=====--===",
"==========*======..o@@..@@@@@@@@@@ooo..::: %%%%$$$========*=====",
"===--===***====&..ooo....@@@@@@@@oooooo:::       $$--===***====&",
"===--==**=====++.oooo......@@@ooooooooo :::       $$-==**=====++",
"-============&+..oo...@@@...ooooooo.....:::$%%%%;;;$$$$======&++",
"======*========.oo..oooo@@..ooooo.......:::%%%%%;;;;;;;; =======",
"*====**===---=..o..ooooooo@@..oo...oooo::..%%%%;;;;;;;;; =---===",
"====**========.oo..oooooooo@.....oooooo::..%%%%;;;;;;;$$========",
"=--==========.oo..ooooooooooo oooooooo.::..%%%%%;;;;;;;  =======",
"=--===--=====.oo.oooooooooooo ooooooo..::..%%%%%%%;;;;   ======*",
"=============.oo.oooooooooooo oooooooo.:::.%%%%%%%%;;  =========",
"======*=====-.oo oooooooooooo.ooooooooo::::$%%%%%%%  =*=====-===",
"=====**==*===... oooooooooooo.ooooooooo::::$%%%%%   =**==*=====*",
"====**==%%%$$...o ooooooooo  oooooooooo.:::      ===**========**",
"======%%%;;;$$$$o ooooooooo  ooooooooooo:::  #O==============**=",
"=====%%;;;;;;%%%ooooooooo   .ooooooooooo::: ##.=================",
"=*===%;;;;;;%%%% oo..ooo   .o.oooooooooo::: ##.==*===*=====--===",
"====%;;;;;;;%%%%% o.o...oooo..ooooooooo.::: O..===========*=====",
"===-;;;;;%$   %%%  o..ooooooo....oooooo::: OO.=&===--===***====&",
"===$;;;;;$$    %%% o..oooooooo....ooooo::: O..++===--==**=====++",
"-==$%%;;;$$%%%  %%  .ooooooooooo...oo.:::  O.&++-============&++",
"===$%%%%%$%%%%%  %% ..ooooooooooooo...::: $..=========*=========",
"*==$%%%%%$$%%%%% %%  .oooooooooooo..:::  $$$-===*====**===---===",
"===$$%%%%%$%%%%% %%%  .oooooooooo.::::  %;;$$=======**==========",
"=--=$%%%%%%%%%$$%%%%% ...oooooooo::::  %%;;;$====--=============",
"=--=  %%%%%%%%  %%%%%$  :::....::::  %%%;;;;$$=*=--===--=======*",
"===== %%%%%%%   %%%%%$$  :::...:::  %%%%%;;;$$==================",
"=====   %%%%$%%%%%%%%$$$   ::::::  $%%%%%;;;$$========*=====-===",
"=====**         $$$$$$$$$$$      %%%%%%%%%%%  =*=====**==*=====*",
"====**===       $$$$$$$$$$$      %%%%%%%%%%% =**====**========**",
"=============**            ==**== %%%%%%%%%$=**==============**=",
"================  $$$$$$  ========%%%%%%%%% ====================",
"=*===*=====--=== $$$$$$$ ==--====*$$%%%%%%%% ====*===*=====--===",
"==========*======       ==*======== %%%%%%%%  ============*=====",
"===--===***====&===--===***====&===          ==&===--===***====&",
"===--==**=====++===--==**=====++===--      ===++===--==**=====++",
"-============&++-============&++-============&++-============&++"
};
