/* XPM */
static char *f0511a34eff8497c8a5c5f18ba01b295uu4woRlewCrcoFaJ[] = {
/* columns rows colors chars-per-pixel */
"64 64 16 1 ",
"  c #101010",
". c #632900",
"X c #842900",
"o c #BD6B00",
"O c #CE7B29",
"+ c #6BC079",
"@ c #D69452",
"# c #297384",
"$ c #5A9CA5",
"% c #65C686",
"& c #84D099",
"* c #96D7A9",
"= c #ABDFAE",
"- c #8CC5CE",
"; c #D6CECE",
": c white",
/* pixels */
"*******&***************&***************&***************&********",
"******&***************&*************$$$$$$$$$*********&*********",
"&****&&***===***&****&&***===***&$$$---------###&****&&***===***",
"****&&**************&&**********$$-------------##***&&**********",
"*==**************==************$----------------##=*************",
"*==***==*******&*==***==******#-----------------$##***==*******&",
"*****************************##-----------------$$$#************",
"******&*****=*********&*****=##----------------$$$$##*&*****=***",
"*****&&**&*****&*****&&**&**##$$-------------$$$$$$$#&&**&*****&",
"****&&********&&****&&******##$$$$---------$$$$$$$#$##********&&",
"*************&&************##$$$$$$$$$$$$$$$$$$$$$#$$#*******&&*",
"***************************##$$$$$$$$$$$$$$$$$$$$$ ;$$$*********",
"*&***&*****==****&***&****##$$$$$$$$$$$$$$$$$$$$$$  ;$$****==***",
"**********&***************##$$$$$$$$$$$$$$$$$$$$$$   ##***&*****",
"***==***&&&****%***==***&&....$$$$$$$$$$$$$$$$$$$$  X##*&&&****%",
"***==**&&*****++***==**&&*......$$$$$$$$$$$$$$$$$$  X##&&*****++",
"=************%++=********..::::...$$$$$$$$$$$$$$$$ OO##******%++",
"******&***************&**.ooooooo:::#.$$$$$$$$$$$$$####*********",
"&****&&***===***&****&&**..oooooo:::#...$$$$$$$$$$$$#$$#**===***",
"****&&**************&&***...@@@@ooo:::..$$$$$$$$$$$$$-- ********",
"*==**************==******...@@@@@@ooo:::.$$$$$$$$$$$$$- ********",
"*==***==*******&*==***oo@@oo@@@@@@@@o::::..$$$$$$$#$$$  *******&",
"*******************#oooo@.@@@@@@@@@@@.:::..$$$$$$$$$$$ *********",
"******&*****=****###oo@@@.@@@@@@@@@@@...::..$$$$$$$$$*&*****=***",
"*****&&**&****####..@@@@..@@@@@@@@@ooooo;;;; $$$$###*&&**&*****&",
"****&&******  ---..o@@@..@@@@@@@@ooooooo ;;;;#####**&&********&&",
"************* -...ooo@...@@@@@@ooooooooo  ;;;#####***********&&*",
"**************#..oooo.......ooooooooo.....;;;OO   **************",
"*&***&*****=  -..oo...@@@@@..ooooo....oo..;;;###$      ****==***",
"**********&*  ..oo....@@@@@@..ooo....ooo.;;;.##$$$$    #**&*****",
"***==***&&&***.oo..@oooooooo@......ooooo;;;;.$$$$$$$$--##&&****%",
"***==**&&****..oo.ooooooooooo  ooooooooo;;;;.$$$$$$$----####**++",
"=************.ooo.ooooooooooo  oooooooo.;;;;.$$$$$-------####%++",
"******&******.o..oooooooooooo  oooooooo.;;;;.$$$$$-----------***",
"&****&&***==..o..oooooooooooooo.ooooooooo;;;;;;$$$--------#==***",
"****&&*******.o..oooooooooooooo.oooooooooo;;;;; $$$$------#*****",
"*==**********..oo ooooooooooo  ooooooooooo.;;;; $$$$$$-----  ***",
"*==***==*$$***... ooooooooooo  ooooooooooooo;;; $$$$$$ ---   **&",
"********$$$##*...o oooooooooo  ooooooooooooo;;;  $$$$  -   *****",
"******&-----###oo   oooooooo  .ooooooooooooo;;;    ***&*****=***",
"*****&$-----$$$oooooooooooo  o..ooooooooooo.;;  ..***&&**&*****&",
"****$$$-----$$$$ ooo..oooo  ooo..ooooooooo.;;  O..**&&********&&",
"***$$------$$$$$  ooo.....oooooo....oooooo;;;  O..***********&&*",
"***$------#  $$$$ oooo..oooooooooo...ooooo;;;OOO.***************",
"*&*$-----##   $$$  ooo.ooooooooooooo..oo.;;;;OO..&***&*****==***",
"**#-----$##$$  $$$ ooo.ooooooooooooooo...;;; OO.**********&*****",
"*##----$##$$$$  $$  oo.oooooooooooooo..;;;; OO..***==***&&&****%",
"*##$---#$$$$$$$  $$ oo.ooooooooooooo.;;;;;  OO.+***==**&&*****++",
"=##$$$$$##$$$$$  $$  o..oooooooooooo;;;;   $$##+=************%++",
"*##$$$$$##$$$$$  $$$$ o...ooooooooo;;;   $$$$##*******&*********",
"&##$$$$$$$$$$$#$$$$$$  o....;;....;;;  $$$$$$--##****&&***===***",
"**##$$$$$$$$$  $$$$$$#   ;  ;;;;;;;;  #$$$$$----#***&&**********",
"*==#$$$$$$$$   $$$$$$### ;   ;;;;;   #$$$$$$----##=*************",
"*==  $$$$$$# $$$$$$$####  ## ..      $$$$$$$----##=***==*******&",
"****  $$$$     ############  ****   $$$$$$$$$---##**************",
"*****  $$      ###########   ****** $$$$$$$$$$--##****&*****=***",
"*****&&**&***  ##           ***&**** $$$$$$$$$$$ ****&&**&*****&",
"****&&********  # ######   ***&&****&#$$$$$$$$$$****&&********&&",
"*************&& ########  ***&&******##$$$$$$$$#*************&&*",
"**************** #####    ***********  $$$$$$$$  ***************",
"*&***&*****==****&      ***==****&***    $$$$$$$ &***&*****==***",
"**********&********   ****&***********     $$$$$  ********&*****",
"***==***&&&****%***==***&&&****%***==***      *%***==***&&&****%",
"***==**&&*****++***==**&&*****++***==**&&*****++***==**&&*****++"
};
