/* XPM */
static char *_6138e202cd344e1d1b074e4c5d67df17udsBOczVzWThDrU[] = {
/* columns rows colors chars-per-pixel */
"32 32 86 1 ",
"  c None",
". c #231815",
"X c #281F20",
"o c #2A2121",
"O c #292127",
"+ c #2C2531",
"@ c #35324C",
"# c #383655",
"$ c #3B3A5F",
"% c #0C3470",
"& c #0A3678",
"* c #3E3E68",
"= c #404458",
"- c #033E91",
"; c #014099",
": c #0B449B",
"> c #16479D",
", c #2A4EA1",
"< c #245AA8",
"1 c #3452A2",
"2 c #3F55A4",
"3 c #335DAA",
"4 c #3B63AD",
"5 c #474B83",
"6 c #4A4F8C",
"7 c #4D5496",
"8 c #50589F",
"9 c #5E6F9B",
"0 c #4959A6",
"q c #535CA8",
"w c #555FAA",
"e c #5761AB",
"r c #5762AC",
"t c #5B66AE",
"y c #5B6AAA",
"u c #5C6BB2",
"i c #4770B6",
"p c #4E74B9",
"a c #6578A7",
"s c #6471B5",
"d c #677EB1",
"f c #6274B8",
"g c #6477B9",
"h c #687FB8",
"j c #687DBD",
"k c #7081A5",
"l c #6A80BF",
"z c #7086B6",
"x c #5E85C2",
"c c #6D86C3",
"v c #6F89C5",
"b c #7486C2",
"n c #718CC7",
"m c #7A92C3",
"M c #7792CA",
"N c #7D97CD",
"B c #799ACF",
"V c #7F99CF",
"C c #819BD0",
"Z c #839DD0",
"A c #839ED1",
"S c #8EA6CF",
"D c #85A0D2",
"F c #8AA2D3",
"G c #88A2D4",
"H c #8CA6D6",
"J c #8CA8D7",
"K c #8EA8D7",
"L c #90A8D6",
"P c #91AAD8",
"I c #91ABD9",
"U c #93ADDA",
"Y c #96ADD9",
"T c #95AFDB",
"R c #9BB4DD",
"E c #A2B9DF",
"W c #A1B9E0",
"Q c #A5BDE2",
"! c #ACC3E5",
"~ c #B4CAE9",
"^ c #BBCFEA",
"/ c #BCD1EC",
"( c #BFD2EC",
") c #C0D4EE",
"_ c #CDDFF3",
"` c #D3E5F6",
/* pixels */
"                                ",
"                      ..        ",
"                    ..=9..      ",
"                   .aRTnn.      ",
"                   .T`QJn.      ",
"                   .T`~Tn.      ",
"                   oT`QTd...    ",
"                  .ST(TTZkZzX.  ",
"              .....JTTTTTTTTTm. ",
"            ..nnnnd-;BIqITTTJn. ",
"          ..hVTTtqqq2;1TTTZnnn. ",
"          .vT`TtbTTnnv;JGnnnn.  ",
"         .nH``qeTTTInnq&nnfwq.  ",
"         .nW`(qTTTTTnng.r555q.  ",
"        .yI(`qT)TTTTnnn*.....   ",
"        .nTT4s!`TTTTnnnq.       ",
"        .nCJ;TTTTTTGnnjq.       ",
"        .un<xTTTTTTnnnq6.       ",
" .........q;UTTTTTnnncq.        ",
" .;lnnnnnnn3;nDHnnnngqq.        ",
" .;pnnnnnnnn;innnnnnqq..        ",
" .q>;;;inZ`_q;nnnnwqqO.         ",
" .$qqqq;N`^qn%qqqqq*..          ",
"  ..+qq0;Lqw`.......            ",
"    .qqq;qqF`.                  ",
"    .+qq;qvE`.                  ",
"     .qq,:nMT.                  ",
"     ..7q;;;;.                  ",
"       ..@qq6.                  ",
"         .8q#.                  ",
"          ...                   ",
"                                "
};
