/* XPM */
static char *result[] = {
/* columns rows colors chars-per-pixel */
"64 64 198 2 ",
"   c #231815",
".  c #261C1E",
"X  c #2A241E",
"o  c #2B241F",
"O  c #2C251F",
"+  c #281F20",
"@  c #1B2236",
"#  c #2A2121",
"$  c #292127",
"%  c #323028",
"&  c #2C2531",
"*  c #292C3C",
"=  c #322E36",
"-  c #312C3C",
";  c #393C31",
":  c #3D3E32",
">  c #38343A",
",  c #40483B",
"<  c #42523F",
"1  c #102F5F",
"2  c #2D2C42",
"3  c #322D43",
"4  c #373542",
"5  c #363347",
"6  c #35324C",
"7  c #37354E",
"8  c #3B3C4D",
"9  c #20365D",
"0  c #31375D",
"q  c #3B3A5F",
"w  c #0E3168",
"e  c #0A3678",
"r  c #3E3E68",
"t  c #485444",
"y  c #485E47",
"u  c #4C4E5E",
"i  c #4E515F",
"p  c #4F604D",
"a  c #4E694F",
"s  c #57634F",
"d  c #566C57",
"f  c #547457",
"g  c #5D785F",
"h  c #4A526E",
"j  c #414371",
"k  c #44477A",
"l  c #4F5979",
"z  c #54607C",
"x  c #677C62",
"c  c #696E7D",
"v  c #648468",
"b  c #608B68",
"n  c #6B9072",
"m  c #729C7B",
"M  c #6CA278",
"N  c #6BC079",
"B  c #014099",
"V  c #06429A",
"C  c #0B449B",
"Z  c #08459C",
"A  c #0A479D",
"S  c #10459C",
"D  c #16479D",
"F  c #204B9F",
"G  c #144EA1",
"H  c #1D53A5",
"J  c #1D55A5",
"K  c #254CA0",
"L  c #2A4EA1",
"P  c #2F50A1",
"I  c #2458A7",
"U  c #2E5BA9",
"Y  c #2B5DAA",
"T  c #3452A2",
"R  c #3953A3",
"E  c #3F55A4",
"W  c #325AA8",
"Q  c #3966B0",
"!  c #474B83",
"~  c #4A4F8C",
"^  c #4F578B",
"/  c #4D5496",
"(  c #50589F",
")  c #546184",
"_  c #55628C",
"`  c #59688F",
"'  c #636D84",
"]  c #7B7F86",
"[  c #4457A5",
"{  c #4959A6",
"}  c #4E5AA7",
"|  c #535CA8",
" . c #555FAA",
".. c #5661A5",
"X. c #5761AB",
"o. c #5762AC",
"O. c #5566AF",
"+. c #5B6AAA",
"@. c #5F70AE",
"#. c #406BB3",
"$. c #5B68B0",
"%. c #5C6BB2",
"&. c #5F6CB2",
"*. c #5E6EB4",
"=. c #4770B6",
"-. c #4E74B9",
";. c #547EBE",
":. c #5C7EBE",
">. c #6071B6",
",. c #677EB1",
"<. c #6274B8",
"1. c #6477B9",
"2. c #6876B8",
"3. c #667ABB",
"4. c #687DBD",
"5. c #71809D",
"6. c #72AE81",
"7. c #7AA884",
"8. c #7081A5",
"9. c #6A80BF",
"0. c #6C80BE",
"q. c #6C85BC",
"w. c #7086B6",
"e. c #7080BE",
"r. c #65C686",
"t. c #7EC591",
"y. c #6B83C1",
"u. c #6D86C3",
"i. c #6F89C5",
"p. c #7486C2",
"a. c #7388C4",
"s. c #718CC7",
"d. c #788BC5",
"f. c #738EC8",
"g. c #7A92C3",
"h. c #7093CB",
"j. c #7690CA",
"k. c #7792CA",
"l. c #7893CB",
"z. c #7C90C8",
"x. c #7A95CC",
"c. c #7C97CD",
"v. c #7D97CD",
"b. c #799ACF",
"n. c #7F99CF",
"m. c #81B48E",
"M. c #92BA92",
"N. c #8093B6",
"B. c #88C097",
"V. c #84D099",
"C. c #8FCCA0",
"Z. c #96D7A9",
"A. c #A3D3A5",
"S. c #ABDFAE",
"D. c #879CC2",
"F. c #859ACE",
"G. c #819BD0",
"H. c #839DD0",
"J. c #839ED1",
"K. c #899FD1",
"L. c #83A1D3",
"P. c #85A0D2",
"I. c #8AA2D3",
"U. c #88A2D4",
"Y. c #8AA4D5",
"T. c #8CA6D6",
"R. c #8CA8D7",
"E. c #8EA8D7",
"W. c #92A7D5",
"Q. c #90A8D6",
"!. c #91AAD8",
"~. c #91ABD9",
"^. c #93ADDA",
"/. c #95AFDB",
"(. c #92B1D9",
"). c #9AB0DA",
"_. c #99B2DD",
"`. c #9DB6DE",
"'. c #A4B9DF",
"]. c #A5BDE2",
"[. c #A8C0E3",
"{. c #ACC3E5",
"}. c #AEC4E4",
"|. c #B0C7E7",
" X c #B4C9E7",
".X c #B4CAE9",
"XX c #B8CDEA",
"oX c #BBCFEA",
"OX c #B9D0EA",
"+X c #BCD1EC",
"@X c #C1D4ED",
"#X c #C0D4EE",
"$X c #C4D8EF",
"%X c #C7DBF1",
"&X c #CBDEF3",
"*X c #CDDFF3",
"=X c #CFE2F4",
"-X c #D3E5F6",
/* pixels */
"Z.Z.Z.Z.Z.Z.V.Z.Z.Z.Z.Z.Z.Z.Z.Z.Z.Z.Z.Z.Z.Z.V.Z.Z.Z.Z.Z.Z.Z.Z.Z.Z.Z.Z.Z.Z.Z.V.Z.Z.Z.Z.Z.Z.Z.Z.Z.Z.Z.Z.Z.Z.Z.V.Z.Z.Z.Z.Z.Z.Z.Z.Z.",
"V.Z.Z.Z.Z.V.V.Z.Z.Z.S.S.S.Z.Z.Z.V.Z.Z.Z.Z.V.V.Z.Z.Z.S.S.S.Z.Z.Z.V.Z.Z.Z.Z.V.V.Z.Z.Z.S.S.S.Z.Z.Z.V.Z.Z.Z.Z.V.V.Z.Z.Z.S.S.S.Z.Z.Z.",
"Z.Z.Z.Z.V.V.Z.Z.Z.Z.Z.Z.Z.Z.Z.Z.Z.Z.Z.Z.V.V.Z.Z.Z.Z.Z.Z.Z.Z.Z.Z.Z.Z.Z.Z.V.V.Z.Z.Z.Z.Z.Z.Z.Z.Z.Z.Z.Z.Z.Z.V.V.Z.Z.Z.Z.Z.Z.Z.Z.Z.Z.",
"Z.S.S.Z.Z.Z.Z.Z.Z.Z.Z.Z.Z.Z.Z.Z.Z.S.S.Z.Z.Z.Z.Z.Z.Z.Z.Z.Z.Z.Z.Z.Z.S.S.Z.Z.Z.Z.Z.Z.Z.Z.Z.Z.Z.Z.Z.Z.S.S.Z.Z.Z.Z.Z.Z.Z.Z.Z.Z.Z.Z.Z.",
"Z.S.S.Z.Z.Z.S.S.Z.Z.Z.Z.Z.Z.Z.V.Z.S.S.Z.Z.Z.S.S.Z.Z.Z.Z.Z.Z.Z.V.Z.S.S.Z.Z.Z.S.S.Z.B.p             A.S.Z.Z.Z.S.S.Z.Z.Z.Z.Z.Z.Z.V.",
"Z.Z.Z.Z.Z.Z.Z.Z.Z.Z.Z.Z.Z.Z.Z.Z.Z.Z.Z.Z.Z.Z.Z.Z.Z.Z.Z.Z.Z.Z.Z.Z.Z.Z.Z.Z.Z.Z.Z.Z.C.                % m.Z.Z.Z.Z.Z.Z.Z.Z.Z.Z.Z.Z.Z.",
"Z.Z.Z.Z.Z.Z.V.Z.Z.Z.Z.Z.S.Z.Z.Z.Z.Z.Z.Z.Z.Z.V.Z.Z.Z.Z.Z.S.Z.Z.Z.Z.Z.Z.Z.Z.Z.V.      4 s.s.s.s.s.)     Z.Z.Z.V.Z.Z.Z.Z.Z.S.Z.Z.Z.",
"Z.Z.Z.Z.Z.V.V.Z.Z.V.Z.Z.Z.Z.Z.V.Z.Z.Z.Z.Z.V.V.Z.Z.V.Z.Z.Z.Z.Z.V.Z.Z.Z.Z.Z.V.V.    ) s.J.J.s.s.s.s.    C.Z.V.V.Z.Z.V.Z.Z.Z.Z.Z.V.",
"Z.Z.Z.Z.V.V.Z.Z.Z.Z.Z.Z.Z.Z.V.V.Z.Z.Z.Z.V.V.Z.Z.Z.Z.Z.Z.Z.Z.V.V.Z.Z.Z.Z.V.V.p   u `.=X%X/./.G.s.s.h   g V.V.Z.Z.Z.Z.Z.Z.Z.Z.V.V.",
"Z.Z.Z.Z.Z.Z.Z.Z.Z.Z.Z.Z.Z.V.V.Z.Z.Z.Z.Z.Z.Z.Z.Z.Z.Z.Z.Z.Z.V.V.Z.Z.Z.Z.Z.Z.Z.%   5.|.-X-X]./.E.s.s.h   g Z.Z.Z.Z.Z.Z.Z.Z.Z.V.V.Z.",
"Z.Z.Z.Z.Z.Z.Z.Z.Z.Z.Z.Z.Z.Z.Z.Z.Z.Z.Z.Z.Z.Z.Z.Z.Z.Z.Z.Z.Z.Z.Z.Z.Z.Z.Z.Z.Z.7.  > /.+X-X-X.X/./.s.s.8   v Z.Z.Z.Z.Z.Z.Z.Z.Z.Z.Z.Z.",
"Z.V.Z.Z.Z.V.Z.Z.Z.Z.Z.S.S.Z.Z.Z.Z.V.Z.Z.Z.V.Z.Z.Z.Z.Z.S.S.Z.Z.Z.Z.V.Z.Z.Z.f   i /.$X-X-X.X/./.s.s.    m.Z.V.Z.Z.Z.Z.Z.S.S.Z.Z.Z.",
"Z.Z.Z.Z.Z.Z.Z.Z.Z.Z.V.Z.Z.Z.Z.Z.Z.Z.Z.Z.Z.Z.Z.Z.Z.Z.V.Z.Z.Z.Z.Z.Z.Z.Z.Z.Z.o   N./..X-X-X{././.s.s.    Z.Z.Z.Z.Z.Z.Z.V.Z.Z.Z.Z.Z.",
"Z.Z.Z.S.S.Z.Z.Z.V.V.V.Z.Z.Z.Z.r.Z.Z.Z.S.S.Z.Z.Z.V.V.V.Z.Z.Z.Z.r.Z.Z.Z.S.S.    /./..X-X-X]././.s.,.        o , 7.V.V.V.Z.Z.Z.Z.r.",
"Z.Z.Z.S.S.Z.Z.V.V.Z.Z.Z.Z.Z.N N Z.Z.Z.S.S.Z.Z.V.V.Z.Z.Z.Z.Z.N N Z.Z.Z.S.S.    /./._.-X&X/././.f.q.                % m Z.Z.Z.N N ",
"S.Z.Z.Z.Z.Z.Z.Z.Z.Z.Z.Z.Z.r.N N S.Z.Z.Z.Z.Z.Z.Z.Z.Z.Z.Z.Z.r.N N S.Z.Z.Z.n   # /././.+X.X/././.T.J.8.8.J.J.w.` +       Z.Z.r.N N ",
"Z.Z.Z.Z.Z.Z.V.Z.Z.Z.Z.Z.Z.Z.Z.Z.Z.Z.Z.Z.Z.Z.V.Z.Z.Z.Z.Z.g t         o t     D././././././././././././././././././.=     m Z.Z.Z.",
"V.Z.Z.Z.Z.V.V.Z.Z.Z.S.S.S.Z.Z.Z.V.Z.Z.Z.Z.V.V.Z.Z.Z.s O                   # ' /./././././././././././././././././.g.=   O Z.Z.Z.",
"Z.Z.Z.Z.V.V.Z.Z.Z.Z.Z.Z.Z.Z.Z.Z.Z.Z.Z.Z.V.V.Z.B.        8 l s.s.s.s.,.h =     B A /./././.p.| | F././././././././.s.s.    Z.Z.Z.",
"Z.S.S.Z.Z.Z.Z.Z.Z.Z.Z.Z.Z.Z.Z.Z.Z.S.S.Z.Z.Z.v o     4 ` s.s.s.s.s.s.s.s.s.l 9 B B J b./.!.| | &.!././././././.E.l.s.s.    Z.Z.Z.",
"Z.S.S.Z.Z.Z.S.S.Z.Z.Z.Z.Z.Z.Z.V.Z.S.S.Z.C.;     _ s.s.c.~././././.a.%.| | | | } K B B T | | 2././././././.G.s.s.s.s.s.    Z.Z.V.",
"Z.Z.Z.Z.Z.Z.Z.Z.Z.Z.Z.Z.Z.Z.Z.Z.Z.Z.Z.Z.;     - s.s.~./././././.z.| | | | | | | | V B B T d./././././.^.J.s.s.s.s.s.`     Z.Z.Z.",
"Z.Z.Z.Z.Z.Z.V.Z.Z.Z.Z.Z.S.Z.Z.Z.Z.Z.Z.p     i.s.^._././././.2.| | X.e././.f.s.s.s.s.O.B B b./././.J.f.s.s.s.s.s.s.4   o M.Z.Z.Z.",
"Z.Z.Z.Z.Z.V.V.Z.Z.V.Z.Z.Z.Z.Z.V.Z.Z.n     7 s.n..X-X+X/./.K.| | X.!./././.E.f.s.s.s.i.C B G R./.U.s.s.s.s.s.s.s.s.    m Z.Z.Z.V.",
"Z.Z.Z.Z.V.V.Z.Z.Z.Z.Z.Z.Z.Z.V.V.Z.Z.    @.s.^.XX-X-X$X/.| | | d./././././././.s.s.s.s.$.P B B s.s.s.s.s.s.s.u.>...    Z.Z.Z.V.V.",
"Z.Z.Z.Z.Z.Z.Z.Z.Z.Z.Z.Z.Z.V.V.Z.Z.7.    s.s.].-X-X-X+Xz.| | K././././././././.s.s.s.s.9.| B e s.s.s.s.9.<. .| | j   % Z.Z.V.V.Z.",
"Z.Z.Z.Z.Z.Z.Z.Z.Z.Z.Z.Z.Z.Z.Z.Z.B.    ^ s.~.-X-X-X-XX.| X.K./././././././././.U.s.s.s.s.1.0   5 o.| ! ! ! ! ! | &   m Z.Z.Z.Z.Z.",
"Z.V.Z.Z.Z.V.Z.Z.Z.Z.Z.S.S.Z.Z.Z.v   & 3.x./.-X-X-X-X| | K././././././././././.^.s.s.s.s.y.~     $             .     C.S.S.Z.Z.Z.",
"Z.Z.Z.Z.Z.Z.Z.Z.Z.Z.V.Z.Z.Z.Z.Z.    +.s.~./.-X-X'.X.| 2.].#X]./././././././././.x.s.s.s.s.| r       ; , , , ,     C.V.Z.Z.Z.Z.Z.",
"Z.Z.Z.S.S.Z.Z.Z.V.V.V.Z.Z.Z.Z.r.    3.s././.$X#X2.| X.!.-X-X-X`././././././././.x.s.s.s.s.| ~   o Z.Z.S.S.Z.Z.B.6.V.V.Z.Z.Z.Z.r.",
"Z.Z.Z.S.S.Z.Z.V.V.Z.Z.Z.Z.Z.N N     s.s././././.D [ /./.-X-X-X[././././././././.x.s.s.s.s.| |     Z.Z.S.S.Z.Z.V.V.Z.Z.Z.Z.Z.N N ",
"S.Z.Z.Z.Z.Z.Z.Z.Z.Z.Z.Z.Z.r.N N     s.s./././.h.B D /./.+X-X+X/././././././././.l.s.s.s.s.| |     Z.Z.Z.Z.Z.Z.Z.Z.Z.Z.Z.Z.r.N N ",
"Z.Z.Z.Z.Z.Z.V.Z.Z.Z.Z.Z.Z.Z.Z.Z.    s.s././.R.B B h./././././././././././././.T.s.s.s.s.s.| |     Z.Z.Z.Z.Z.V.Z.Z.Z.Z.Z.Z.Z.Z.Z.",
"V.Z.Z.Z.Z.V.V.Z.Z.Z.S.S.S.Z.Z.Z.    s.s.T./.J B ;././././././././././././././.j.s.s.s.s.i.| |     Z.Z.Z.Z.V.V.Z.Z.Z.S.S.S.Z.Z.Z.",
"Z.Z.Z.Z.V.V.Z.Z.Z.Z.Z.Z.Z.Z.Z.Z.    s.s.G./.B B L././././././././././././././.s.s.s.s.s.4.| |     Z.Z.Z.V.V.Z.Z.Z.Z.Z.Z.Z.Z.Z.Z.",
"Z.S.S.Z.Z.Z.Z.Z.Z.Z.Z.Z.Z.Z.Z.Z.    1.s.s.P.B B /./././././././././././././.G.s.s.s.s.i. .| |     S.S.Z.Z.Z.Z.Z.Z.Z.Z.Z.Z.Z.Z.Z.",
"Z.S.S.Z.Z.Z.S.S.Z.Z.Z.Z.Z.Z.Z.V.    %.s.s.f.B B /././././././././././././.Y.s.s.s.s.s.1.| | ~   o S.S.Z.Z.Z.S.S.Z.Z.Z.Z.Z.Z.Z.V.",
"Z.Z.Z.m                               . *.9.B B /./././././././././././.E.s.s.s.s.s.s.| | | $   n Z.Z.Z.Z.Z.Z.Z.Z.Z.Z.Z.Z.Z.Z.Z.",
"Z.Z.C.o                                 | | B B /././././././././././.U.f.s.s.s.s.s.u.| | !     C.Z.Z.Z.Z.Z.V.Z.Z.Z.Z.Z.S.Z.Z.Z.",
"Z.Z.o   1 V | | | | $.$.<.1.9.u.s.s.s.s.*.| B B :.n./././././././.n.s.s.s.s.s.s.s.*.| | |     M Z.Z.Z.Z.Z.V.V.Z.Z.V.Z.Z.Z.Z.Z.V.",
"Z.Z.    B B 4.9.s.s.s.s.s.s.s.s.s.s.s.s.s.u.B B Z :.j.G.T.T.T.P.j.s.s.s.s.s.s.s.s.| | | |     V.Z.Z.Z.Z.V.V.Z.Z.Z.Z.Z.Z.Z.Z.V.V.",
"Z.Z.    B B Y -.s.s.s.s.s.s.s.s.s.s.s.s.s.s.s.=.B B s.s.s.s.s.s.s.s.s.s.s.s.s.*.| | | ~     a Z.Z.Z.Z.Z.Z.Z.Z.Z.Z.Z.Z.Z.Z.V.V.Z.",
"Z.Z.    S B B B B B H H :.s.s.s.s.s.s.s.v.}.I.s.B B s.s.s.s.s.s.s.s.s.s.s.s.y.| | | | .   % C.Z.Z.Z.Z.Z.Z.Z.Z.Z.Z.Z.Z.Z.Z.Z.Z.Z.",
"Z.V.    | | K D B B B B B B =.s.s.s.H.@X-X-Xk.3.D B -.s.s.s.s.s.s.s.s.i.<.| | | | ~ $     Z.Z.Z.Z.V.Z.Z.Z.V.Z.Z.Z.Z.Z.S.S.Z.Z.Z.",
"Z.Z.    | | | | | | [ R B B B =.s.s.*X-X-X-X3.| U B W 9.s.s.s.s.s.u.3.| | | | | | .     n Z.Z.Z.Z.Z.Z.Z.Z.Z.Z.Z.Z.Z.V.Z.Z.Z.Z.Z.",
"Z.Z.d     q | | | | | | | } B B v.*X-X-XoX3.| $.Q w L | | | | | | | | | | | | .     X Z.Z.Z.Z.r.Z.Z.Z.S.S.Z.Z.Z.V.V.V.Z.Z.Z.Z.r.",
"Z.Z.C.:     3 r | | | | | | B B (.-X-X-X0.| | W.z   2 ~ | | | | | | | | | q .     , B.Z.Z.Z.N N Z.Z.Z.S.S.Z.Z.V.V.Z.Z.Z.Z.Z.N N ",
"S.Z.Z.Z.g o       & | | | | { B B OXQ.9.| | ).-X]                             g C.Z.Z.Z.Z.r.N N S.Z.Z.Z.Z.Z.Z.Z.Z.Z.Z.Z.Z.r.N N ",
"Z.Z.Z.Z.Z.Z.f ;     | | | | | S B #.y. .| | @X-X]   % o                   ; b Z.Z.Z.Z.Z.Z.Z.Z.Z.Z.Z.Z.Z.Z.Z.V.Z.Z.Z.Z.Z.Z.Z.Z.Z.",
"V.Z.Z.Z.Z.V.V.Z.    | | | | | [ B B | | | 3.-X-X]   x S.S.Z.Z.Z.V.Z.Z.Z.Z.V.V.Z.Z.Z.S.S.S.Z.Z.Z.V.Z.Z.Z.Z.V.V.Z.Z.Z.S.S.S.Z.Z.Z.",
"Z.Z.Z.Z.V.V.Z.Z.%   ! | | | | | B B | |  .i.-X-X]   g Z.Z.Z.Z.Z.Z.Z.Z.Z.V.V.Z.Z.Z.Z.Z.Z.Z.Z.Z.Z.Z.Z.Z.Z.V.V.Z.Z.Z.Z.Z.Z.Z.Z.Z.Z.",
"Z.S.S.Z.Z.Z.Z.Z.n   & | | | | | B B | | i.s.-X-X]   g Z.Z.Z.Z.Z.Z.S.S.Z.Z.Z.Z.Z.Z.Z.Z.Z.Z.Z.Z.Z.Z.S.S.Z.Z.Z.Z.Z.Z.Z.Z.Z.Z.Z.Z.Z.",
"Z.S.S.Z.Z.Z.S.S.B.    / | | | | B B } | s.s.-X-Xc   g Z.Z.Z.Z.V.Z.S.S.Z.Z.Z.S.S.Z.Z.Z.Z.Z.Z.Z.V.Z.S.S.Z.Z.Z.S.S.Z.Z.Z.Z.Z.Z.Z.V.",
"Z.Z.Z.Z.Z.Z.Z.Z.Z.n     | | | | L B C | s.s. XoX8   n Z.Z.Z.Z.Z.Z.Z.Z.Z.Z.Z.Z.Z.Z.Z.Z.Z.Z.Z.Z.Z.Z.Z.Z.Z.Z.Z.Z.Z.Z.Z.Z.Z.Z.Z.Z.Z.",
"Z.Z.Z.Z.Z.Z.V.Z.Z.Z.    ( | | | { B B F s.:.I H *   7.Z.S.Z.Z.Z.Z.Z.Z.Z.Z.Z.V.Z.Z.Z.Z.Z.S.Z.Z.Z.Z.Z.Z.Z.Z.Z.V.Z.Z.Z.Z.Z.S.Z.Z.Z.",
"Z.Z.Z.Z.Z.V.V.Z.Z.V.g     . / | | } B B B B B B @   7.Z.Z.Z.Z.V.Z.Z.Z.Z.Z.V.V.Z.Z.V.Z.Z.Z.Z.Z.V.Z.Z.Z.Z.Z.V.V.Z.Z.V.Z.Z.Z.Z.Z.V.",
"Z.Z.Z.Z.V.V.Z.Z.Z.Z.Z.g       & j ( K V B V T E     B.Z.Z.Z.V.V.Z.Z.Z.Z.V.V.Z.Z.Z.Z.Z.Z.Z.Z.V.V.Z.Z.Z.Z.V.V.Z.Z.Z.Z.Z.Z.Z.Z.V.V.",
"Z.Z.Z.Z.Z.Z.Z.Z.Z.Z.Z.Z.Z.b         6 ( | | | |     Z.Z.Z.V.V.Z.Z.Z.Z.Z.Z.Z.Z.Z.Z.Z.Z.Z.Z.V.V.Z.Z.Z.Z.Z.Z.Z.Z.Z.Z.Z.Z.Z.Z.V.V.Z.",
"Z.Z.Z.Z.Z.Z.Z.Z.Z.Z.Z.Z.Z.Z.C.7.o     & | | | |     Z.Z.Z.Z.Z.Z.Z.Z.Z.Z.Z.Z.Z.Z.Z.Z.Z.Z.Z.Z.Z.Z.Z.Z.Z.Z.Z.Z.Z.Z.Z.Z.Z.Z.Z.Z.Z.Z.",
"Z.V.Z.Z.Z.V.Z.Z.Z.Z.Z.S.S.Z.Z.Z.Z.V.    & ( | |     Z.S.S.Z.Z.Z.Z.V.Z.Z.Z.V.Z.Z.Z.Z.Z.S.S.Z.Z.Z.Z.V.Z.Z.Z.V.Z.Z.Z.Z.Z.S.S.Z.Z.Z.",
"Z.Z.Z.Z.Z.Z.Z.Z.Z.Z.V.Z.Z.Z.Z.Z.Z.Z.p     . k 3     V.Z.Z.Z.Z.Z.Z.Z.Z.Z.Z.Z.Z.Z.Z.Z.V.Z.Z.Z.Z.Z.Z.Z.Z.Z.Z.Z.Z.Z.Z.Z.V.Z.Z.Z.Z.Z.",
"Z.Z.Z.S.S.Z.Z.Z.V.V.V.Z.Z.Z.Z.r.Z.Z.Z.S.O       < t.V.Z.Z.Z.Z.r.Z.Z.Z.S.S.Z.Z.Z.V.V.V.Z.Z.Z.Z.r.Z.Z.Z.S.S.Z.Z.Z.V.V.V.Z.Z.Z.Z.r.",
"Z.Z.Z.S.S.Z.Z.V.V.Z.Z.Z.Z.Z.N N Z.Z.Z.S.A.v , y V.Z.Z.Z.Z.Z.N N Z.Z.Z.S.S.Z.Z.V.V.Z.Z.Z.Z.Z.N N Z.Z.Z.S.S.Z.Z.V.V.Z.Z.Z.Z.Z.N N ",
"S.Z.Z.Z.Z.Z.Z.Z.Z.Z.Z.Z.Z.r.N N S.Z.Z.Z.Z.Z.Z.Z.Z.Z.Z.Z.Z.r.N N S.Z.Z.Z.Z.Z.Z.Z.Z.Z.Z.Z.Z.r.N N S.Z.Z.Z.Z.Z.Z.Z.Z.Z.Z.Z.Z.r.N N "
};
