/* XPM */
static char *result[] = {
/* columns rows colors chars-per-pixel */
"64 64 207 2 ",
"   c #000401",
".  c #000906",
"X  c #041215",
"o  c #081616",
"O  c #01141B",
"+  c #05181E",
"@  c #0B1A19",
"#  c #101C1B",
"$  c #001A25",
"%  c #0B1D24",
"&  c #101E22",
"*  c #05222E",
"=  c #0B252C",
"-  c #122124",
";  c #15262D",
":  c #17282F",
">  c #1D2C2F",
",  c #052331",
"<  c #092532",
"1  c #022D36",
"2  c #0D2935",
"3  c #06263B",
"4  c #162A33",
"5  c #1B2C34",
"6  c #162E3B",
"7  c #1C2E38",
"8  c #06363E",
"9  c #0D343B",
"0  c #1B343B",
"q  c #212D39",
"w  c #22333B",
"e  c #26383F",
"r  c #0F3245",
"t  c #133245",
"y  c #1D3543",
"u  c #1F3A44",
"i  c #153549",
"p  c #163949",
"a  c #1E394B",
"s  c #163C51",
"d  c #1C3E52",
"f  c #223641",
"g  c #263A45",
"h  c #293B43",
"j  c #223C4A",
"k  c #293948",
"l  c #1D4155",
"z  c #2A414D",
"x  c #2A4857",
"c  c #25465A",
"v  c #2D4A5B",
"b  c #344554",
"n  c #344954",
"m  c #32525F",
"M  c #3C535B",
"N  c #264B62",
"B  c #2E4E63",
"V  c #2A4F69",
"C  c #295465",
"Z  c #2C556C",
"A  c #2E5D6C",
"S  c #345464",
"D  c #3B5562",
"F  c #3B5A66",
"G  c #35556B",
"H  c #335B6C",
"J  c #3C5A6D",
"K  c #385B73",
"L  c #366178",
"P  c #445C65",
"I  c #465A68",
"U  c #455B6A",
"Y  c #485F71",
"T  c #50616B",
"R  c #436372",
"E  c #4C6A77",
"W  c #45657A",
"Q  c #4D6778",
"!  c #446B7B",
"~  c #526876",
"^  c #536D7B",
"/  c #57747C",
"(  c #59737B",
")  c #61757E",
"_  c #6BC079",
"`  c #456780",
"'  c #456C83",
"]  c #4E6E84",
"[  c #4A7585",
"{  c #547185",
"}  c #5C7582",
"|  c #53758C",
" . c #58788E",
".. c #4D7B93",
"X. c #557991",
"o. c #5A7C93",
"O. c #607883",
"+. c #687A8B",
"@. c #767F93",
"#. c #5C8193",
"$. c #688293",
"%. c #6B8699",
"&. c #658C9D",
"*. c #6A889B",
"=. c #798595",
"-. c #788FA1",
";. c #6691A4",
":. c #6B92A6",
">. c #6A96AF",
",. c #7C9DA6",
"<. c #7697AA",
"1. c #7C97AA",
"2. c #7C9CB3",
"3. c #7EA0AA",
"4. c #7AA4BA",
"5. c #65C686",
"6. c #86908E",
"7. c #89928D",
"8. c #8F8B99",
"9. c #899492",
"0. c #919C9E",
"q. c #8C8FA0",
"w. c #8796A6",
"e. c #9997A6",
"r. c #809FB4",
"t. c #999EB1",
"y. c #83A5AF",
"u. c #95A0A4",
"i. c #8CA5B3",
"p. c #84A6BB",
"a. c #87ACBF",
"s. c #8CABBC",
"d. c #94A6B2",
"f. c #99ACB3",
"g. c #95A7B8",
"h. c #95ACBB",
"j. c #9BACBA",
"k. c #9BB1BB",
"l. c #A5B4BB",
"z. c #84D099",
"x. c #96D7A9",
"c. c #ABDFAE",
"v. c #8DABC3",
"b. c #8AB5C8",
"n. c #97B6C8",
"m. c #93BACD",
"M. c #95BDD1",
"N. c #9ABED4",
"B. c #AEB7C6",
"V. c #A5B9C6",
"C. c #A5BDCD",
"Z. c #A1BDD3",
"A. c #99C0CF",
"S. c #9CC4D4",
"D. c #9DC8DC",
"F. c #A8C2CF",
"G. c #B1C3CC",
"H. c #A5C7D5",
"J. c #ABC4D7",
"K. c #A0C9DD",
"L. c #A8CBDE",
"P. c #B6C7D1",
"I. c #B4C8D3",
"U. c #BACBD4",
"Y. c #B3CBDB",
"T. c #BDD2DB",
"R. c #BAD5DC",
"E. c #AFCDE5",
"W. c #ACD2E5",
"Q. c #A9D3EA",
"!. c #BBD4E5",
"~. c #B2D7EA",
"^. c #B9D8E9",
"/. c #B5DEF2",
"(. c #B7E1F7",
"). c #BBE4F9",
"_. c #C3D6DC",
"`. c #C6D9DE",
"'. c #C2D7E2",
"]. c #C5D9E2",
"[. c #CBDBE5",
"{. c #C6DBE9",
"}. c #CCDEEA",
"|. c #D6DCE3",
" X c #C2DCF3",
".X c #D6E0E2",
"XX c #D9E3E5",
"oX c #DCE5EB",
"OX c #DDEBED",
"+X c #C1E6F9",
"@X c #C4EAFC",
"#X c #D7E9F6",
"$X c #D2EAFC",
"%X c #CEF4FF",
"&X c #DCF2FF",
"*X c #D2F9FF",
"=X c #E1E9ED",
"-X c #E4EDF2",
";X c #E8EDF3",
":X c #E5F0F3",
">X c #EAF2F5",
",X c #E3F3FB",
"<X c #EDF5F9",
"1X c #E5FAFF",
"2X c #EDFDFF",
"3X c #F4FEFF",
"4X c #F8FEFF",
/* pixels */
"x.x.x.x.x.x.z.x.x.x.x.x.x.x.x.x.x.x.x.x.x.x.z.x.x.x.x.x.x.x.x.x.x.x.x.x.x.x.z.x.x.x.x.x.x.x.x.x.x.x.x.x.x.x.z.x.x.x.x.x.x.x.x.x.",
"z.x.x.x.x.z.z.x.x.x.c.c.c.x.x.x.z.x.x.x.x.z.z.x.x.x.c.c.c.x.x.x.z.x.x.x.x.z.z.x.x.x.c.c.c.x.x.x.z.x.x.x.x.z.z.x.x.x.c.c.c.x.x.x.",
"x.x.x.x.z.z.x.x.x.x.x.x.x.x.x.x.x.x.x.x.z.z.x.x.x.x.x.x.x.x.x.x.x.x.x.x.z.z.x.x.x.x.x.x.x.x.x.x.x.x.x.x.z.z.x.x.x.x.x.x.x.x.x.x.",
"x.c.c.x.x.x.x.x.x.x.x.x.x.x.x.x.x.c.c.x.x.x.x.x.x.x.x.x.x.x.x.x.x.c.c.x.x.x.x.x.x.x.x.x.x.x.x.x.x.c.c.x.x.x.x.x.x.x.x.x.x.x.x.x.",
"x.c.c.x.x.x.c.c.x.x.x.x.x.x.x.z.x.c.c.x.x.x.c.c.x.x.x.x.x.x.x.z.x.c.c.x.x.x.c.c.x.x.x.x.x.x.x.z.x.c.c.x.x.x.c.c.x.x.x.x.x.x.x.z.",
"x.x.x.x.x.x.x.x.x.x.x.x.x.x.x.x.x.x.x.x.x.x.x.x.x.x.x.x.x.x.x.x.x.x.x.x.x.x.x.x.x.x.x.x.x.x.x.x.x.x.x.x.x.x.x.x.x.x.x.x.x.x.x.x.",
"x.x.x.x.x.x.z.x.x.x.x.x.c.x.x.x.x.x.x.x.x.x.z.x.x.x.x.x.c.x.x.x.x.x.x.x.x.x.z.x.x.x.x.x.c.x.x.x.x.x.x.x.x.x.z.x.x.x.x.x.c.x.x.x.",
"x.x.x.x.x.z.z.x.x.z.x.x.x.x.x.z.x.x.x.x.x.z.z.x.x.z.x.x.x.x.x.z.x.x.x.x.x.z.z.x.x.z.x.x.x.x.x.z.x.x.x.x.x.z.z.x.x.z.x.x.x.x.x.z.",
"x.x.x.x.z.z.x.x.x.x.x.x.x.x.z.z.x.x.x.x.z.z.x.x.x.x.x.x.x.x.z.z.x.x.x.x.z.z.x.x.x.x.x.x.x.x.z.z.x.x.x.x.z.z.x.x.x.x.x.x.x.x.z.z.",
"x.x.x.x.x.x.x.x.x.x.x.x.x.z.z.x.x.x.x.x.x.x.x.x.x.x.x.x.x.z.z.x.x.x.x.x.x.x.x.x.x.x.x.x.x.z.z.x.x.x.x.x.x.x.x.x.x.x.x.x.x.z.z.x.",
"x.x.x.x.x.x.x.x.x.x.x.x.x.x.x.x.x.x.x.x.x.x.x.x.x.x.x.x.x.x.x.x.x.x.x.x.x.x.x.x.x.x.x.x.x.x.x.x.x.x.x.x.x.x.x.x.x.x.x.x.x.x.x.x.",
"x.z.x.x.x.z.x.x.x.x.x.c.c.x.x.x.x.z.x.x.x.z.x.x.x.x.x.c.c.x.x.x.x.z.x.x.x.z.x.x.x.x.x.c.c.x.x.x.x.z.x.x.x.z.x.x.x.x.x.c.c.x.x.x.",
"x.x.x.x.x.x.x.x.x.x.z.x.x.x.x.x.x.x.x.x.x.x.x.x.x.x.z.x.x.x.x.x.x.x.x.x.x.x.x.x.x.x.z.x.x.x.x.x.x.x.x.x.x.x.x.x.x.x.z.x.x.x.x.x.",
"x.x.x.c.c.x.x.x.z.z.z.x.x.x.x.5.x.x.x.c.c.x.x.x.z.z.z.x.x.x.x.5.x.x.x.c.c.x.x.x.z.z.z.x.x.x.x.5.x.x.x.c.c.x.x.x.z.z.z.x.x.x.x.5.",
"x.x.x.c.c.x.x.z.z.x.x.x.x.x._ _ x.x.x.c.c.x.x.z.z.x.x.x.x.x._ _ x.x.x.c.c.x.x.z.z.x.x.x.x.x._ _ x.x.x.c.c.x.x.z.z.x.x.x.x.x._ _ ",
"c.x.x.x.x.x.x.x.x.x.x.x.x.5._ _ c.x.x.x.x.x.x.x.x.x.x.x.x.5._ _ c.x.x.x.x.x.x.x.x.x.x.x.x.5._ _ c.x.x.x.x.x.x.x.x.x.x.x.x.5._ _ ",
"x.x.x.x.x.x.z.x.x.x.x.x.x.x.x.x.x.x.x.x.x.x.z.x.x.x.x.x.x.x.x.x.x.x.x.x.x.x.z.x.x.x.x.x.x.x.x.x.x.x.x.x.x.x.z.x.x.x.x.x.x.x.x.x.",
"z.x.x.x.x.z.z.x.x.x.c.c.c.x.x.x.z.x.x.x.x.z.z.x.x.x.c.c.c.x.x.x.z.x.x.x.x.z.z.x.x.x.c.c.c.x.x.x.z.x.x.x.x.z.z.x.x.x.c.c.c.x.x.x.",
"x.x.x.x.z.z.x.x.x.x.x.x.x.x.x.x.x.x.x.x.z.z.x.x.x.x.x.x.x.x.x.x.x.x.x.x.z.z.x.x.x.x.x.x.x.x.x.x.x.x.x.x.z.z.x.x.x.x.x.x.x.x.x.x.",
"x.c.c.x.x.x.x.x.x.x.x.x.x.x.x.x.x.c.c.x.x.x.x.x.x.x.x.x.x.x.x.x.x.c.c.x.x.x.x.x.x.x.x.x.x.x.x.x.x.c.c.x.x.x.x.x.x.x.x.x.x.x.x.x.",
"x.c.c.x.x.x.c.c.x.x.x.x.x.x.x.z.x.c.c.x.x.x.c.c.x.x.x.x.x.x.x.z.x.c.c.x.x.x.c.c.x.x.x.x.x.x.x.z.x.c.c.x.x.x.c.c.x.x.x.x.x.x.x.z.",
"x.x.x.x.x.x.x.x.x.x.x.x.x.x.x.x.x.x.x.x.x.x.x.x.x.x.x.x.x.x.x.x.x.x.x.x.x.x.x.x.x.x.x.x.x.x.x.x.x.x.x.x.x.x.x.x.x.x.x.x.x.x.x.x.",
"x.x.x.x.x.x.z.x.x.x.x.x.c.x.x.x.x.x.x.x.x.x.z.x.x.x.x.x.c.x.x.x.x.x.x.x.x.x.z.x.x.x.x.x.c.x.x.x.x.x.x.x.x.x.z.x.x.x.x.x.c.x.x.x.",
"x.x.x.x.x.z.z.x.x.z.x.x.x.x.x.z.x.x.x.x.x.z.z.x.x.z.x.x.x.x.x.z.x.x.x.x.x.z.z.x.x.z.x.x.x.x.x.z.x.x.x.x.x.z.z.x.x.z.x.x.x.x.x.z.",
"x.x.x.x.z.z.x.x.x.x.x.x.x.x.z.z.x.x.x.x.z.z.x.x.x.x.x.x.x.x.z.z.x.x.x.x.z.z.x.x.x.x.x.x.x.x.z.z.x.x.x.x.z.z.x.x.x.x.x.x.x.x.z.z.",
"x.x.x.x.x.x.x.x.x.x.x.x.x.z.z.x.x.x.x.x.x.x.x.x.x.x.x.x.x.z.z.x.x.x.x.x.x.x.x.x.x.x.x.x.x.z.z.x.x.x.x.x.x.x.x.x.x.x.x.x.x.z.z.x.",
"x.x.x.x.x.x.x.x.x.x.x.x.x.x.x.x.x.x.x.x.x.x.x.x.x.x.x.x.x.x.x.x.x.x.x.x.x.x.x.x.x.x.x.x.x.x.x.x.x.x.x.x.x.x.x.x.x.x.x.x.x.x.x.x.",
"x.z.x.x.x.z.x.x.x.x.x.c.c.x.x.x.x.z.x.x.x.z.x.x.x.x.x.c.c.x.x.x.x.z.x.x.x.z.x.x.x.x.x.c.c.x.x.x.x.z.x.x.x.z.x.x.x.x.x.c.c.x.x.x.",
"x.x.x.x.x.x.x.x.x.x.m.m.n.B.B.q.q.q.t.t.=.+.+.w.w.r.i.i.s.h.s.d.h.k.V.V.B.g.g.@.@.@.e.e.8.8.e.j.k.h.v.a.x.x.x.x.x.x.z.x.x.x.x.x.",
"x.x.x.c.c.x.x.x.z.z.m.M.n.B.B.q.q.q.t.t.=.@.+.w.w.w.y.i.s.h.f.h.g.l.V.V.B.g.g.@.@.@.e.e.8.8.e.j.j.h.s.a.c.x.x.x.z.z.z.x.x.x.x.5.",
"x.x.x.c.c.x.x.z.z.x.).). .O.) 3X3X3X&X,XO.t t Y W ! C A A A A F H H H H ! J K x x I 3X3X4X4X,Xw.-.] 4.4.c.x.x.z.z.x.x.x.x.x._ _ ",
"c.x.x.x.x.x.x.x.x.x.(.(.W b b ].{.{.{.{.~ 2 < F G H 8 8 8 1 1 1 1 9 0 p S S S k g I }.}.[.[.}.D D J K.D.x.x.x.x.x.x.x.x.x.5._ _ ",
"x.x.x.x.x.x.z.x.x.x.(.(.R b b {.{.[.}.}.~ < 2 D F A 8 r 8 1 1 1 1 9 l 9 m m F u g P }.}.[.[.[.D D J D.D.x.x.z.x.x.x.x.x.x.x.x.x.",
"z.x.x.x.x.z.z.x.x.x.D.D.E P I G.P.U.P.B.) b z I P F 9 0 9 2 = = = 0 9 z M P P n n T U.U.P.P.G.Y Q / S.S.x.z.z.x.x.x.c.c.c.x.x.x.",
"x.x.x.x.z.z.x.x.x.x.M.M.Z.T.T.2X4X4X4X4X=X|.|.;X>X>XOXOXOXOX=X|..XXXXXXXOX:X:XXXXX-X2X3X3X2X2XT.T.H.A.A.z.z.x.x.x.x.x.x.x.x.x.x.",
"x.c.c.x.x.x.x.x.x.x.M.M.F.T.T.<X4X4X4X4X=X|.|.;X:X:XOXOXXXOX=X.X.XXXXXXXOX:X:XXXXX-X2X2X2X2X2XT.T.H.A.A.x.x.x.x.x.x.x.x.x.x.x.x.",
"x.c.c.x.x.x.c.c.x.x.:.:. X,X2X,X|.#X[.[.oX<X<X;X:X=X>X>X=X3X3X>X>X<X>X>X:X>X<X:X:X-X}.}.#X#X,X2X2X^.&.&.z.x.c.c.x.x.x.x.x.x.x.z.",
"x.x.x.x.x.x.x.x.x.x.:.:.^.,X1X,XoXoX|.|.=X<X<X;X:X-X>X>X:X4X4X;X>X3X>X>X:X>X<X:X:X:X}.[.#X#X,X2X2X^.&.&.x.x.x.x.x.x.x.x.x.x.x.x.",
"x.x.x.x.x.x.z.x.x.x.' ' N.'.'.T.F.F.h.j.I.{.[.T._.T.`.R.U.U.T.U.U._.R.R.R.`._.R.R.U.h.h.V.V.B.{.`.A.! #.x.x.z.x.x.x.x.x.c.x.x.x.",
"x.x.x.x.x.z.z.x.x.z.K L | } { O.^ ^ J R / } ( ( ( ( ( / / ) ) ) ( ) / / / / / / / ^ Y R ^ ^ ( O.} [ A A x.z.z.x.x.z.x.x.x.x.x.z.",
"x.x.x.x.z.z.x.x.x.x.L L | { { O.! ^ R R ~ } O.( ( ( ( ( ( ( } ) ) } / } / / / ( ( ^ R Y ^ ^ } } [ [ A A z.z.x.x.x.x.x.x.x.x.z.z.",
"x.x.x.x.x.x.x.x.x.x.V V d 3 < y u u y w 0 4 5 q 7 w ; > 7 > > > > > > 5 7 7 0 7 7 f t 6 t i k t 9 l C C x.x.x.x.x.x.x.x.x.z.z.x.",
"x.x.x.x.x.x.x.x.x.x.Z K d k d I U U U Y b 5 5 q w > X X # - - - - @ - - > 4 5 q q k ~ Q F U Y a a l Z Z x.x.x.x.x.x.x.x.x.x.x.x.",
"x.z.x.x.x.z.x.x.x.x.K K d k a U U U Y Y b 5 7 q 0 > X X # - # - - - = - 4 > 5 q q k Q Q J J Y a p s A A x.z.x.x.x.x.x.c.c.x.x.x.",
"x.x.x.x.x.x.x.x.x.x.V V G c c %.%.%.+.$.Y h h q > - @ @ o @ @ # # # % @ & 7 5 b b P +.$.*.*.$.G S N Z H x.x.x.x.x.x.z.x.x.x.x.x.",
"x.x.x.c.c.x.x.x.z.z.V V V c c %.*.%.#.+.Y h h > > - @ @ o @ @ # # # @ @ & 7 7 b b D $.$.%.%.%.D S N Z H c.x.x.x.z.z.z.x.x.x.x.5.",
"x.x.x.c.c.x.x.z.z.x.N N W  . .Z.^.!.V.C.=.M M > 5 o . .                 X 7 7 M M ( Y.I.Y.Y.J.o.o.K V N c.x.x.z.z.x.x.x.x.x._ _ ",
"c.x.x.x.x.x.x.x.x.x.s s *.v.v. X$X$X}.}.P.f.f.0.0.9.6.6.7.7.9.7.9.7.7.7.9.e.u.l.l.B.#X#X!.'.^.s.h.<.d d x.x.x.x.x.x.x.x.x.5._ _ ",
"x.x.x.x.x.x.z.x.x.x.s s &.v.v.(.$X$X}.}.U.f.f.0.0.9.6.6.7.7.7.7.7.7.7.7.9.u.e.l.l.G.#X#X!.!.!.a.v.-.d l x.x.z.x.x.x.x.x.x.x.x.x.",
"z.x.x.x.x.z.z.x.x.x.l l p.E.E.$X&X&X,X,X3X4X3X3X4X4X3X3X3X3X3X3X4X4X4X4X3X3X2X3X2X3X2X3X&X&X1X!.!.v.r r x.z.z.x.x.x.c.c.c.x.x.x.",
"x.x.x.x.z.z.x.x.x.x.l l r.E.E.$X&X&X,X1X2X3X3X3X3X3X3X3X3X3X3X3X4X4X4X4X3X3X3X3X3X2X3X3X&X&X1X!.!.v.r r z.z.x.x.x.x.x.x.x.x.x.x.",
"x.c.c.x.x.x.x.x.x.x.3 3 ` r.r. XJ.J.Y.J.T.'.'.'._._._._.T._._.`.`.`.`.`.`.].`.[.[.{.k.n.J.J. Xw.1.] , , x.x.x.x.x.x.x.x.x.x.x.x.",
"x.c.c.x.x.x.c.c.x.x.d c G { { v.1.1.1.1.i.h.h.k.j.k.k.k.k.h.f.f.f.f.f.f.f.d.d.d.d.i.-.-.r.r.v.{ { H c l x.x.c.c.x.x.x.x.x.x.x.z.",
"x.x.x.x.x.x.x.x.x.x.N N G { { r.1.1.1.1.i.k.h.h.k.h.k.k.k.k.h.f.f.f.f.f.f.d.d.d.d.i.-.-.t.r.v.} { J l l x.x.x.x.x.x.x.x.x.x.x.x.",
"x.x.x.x.x.x.z.x.x.x.o.*.B 3 t a a y 6 6 0 h g g e w w w > e e e e e e e h h h f f a t t i i d t t v #.#.x.x.z.x.x.x.x.x.c.x.x.x.",
"x.x.x.x.x.z.z.x.x.z.p.p.U a i B J J v v j g g 7 5 : 4 4 ; : : ; ; - ; ; 5 q q f f f v v G G B t i C m.m.x.z.z.x.x.z.x.x.x.x.x.z.",
"x.x.x.x.z.z.x.x.x.x.p.p.J i i S J J v b j k g 7 5 4 4 4 : : : ; ; ; ; ; 5 w w f f a N v G G B i p S m.A.z.z.x.x.x.x.x.x.x.x.z.z.",
"x.x.x.x.x.x.x.x.x.x.L.L.W r i ] | | W W v y y 5 6 ; % % + + O O X O + + = 4 4 a f x ] ] o.o.W s l H W.W.x.x.x.x.x.x.x.x.x.z.z.x.",
"x.x.x.x.x.x.x.x.x.x.E.L.Y t t ] X.| ! L v y y 6 5 2 % % + O + O O O O + = 4 4 a j v ] ' o.o.` s l A W.W.x.x.x.x.x.x.x.x.x.x.x.x.",
"x.z.x.x.x.z.x.x.x.x.%X*XE.2.1.2.#.#.' ' G z z < < O O O O + + O O O O O $ , < d d V ` ` X.X.>.v.a.a.~.W.x.z.x.x.x.x.x.c.c.x.x.x.",
"x.x.x.x.x.x.x.x.x.x.@X@X).W.E.M.>.>.....' H H p i $ , , 1 2 2 = * < < < $ r r Z H [ ..| >.:.A.~.~.~.@X@Xx.x.x.x.x.x.z.x.x.x.x.x.",
"x.x.x.c.c.x.x.x.z.z.+X+X).E.E.M.>.>.....' F H p i * , , = 9 2 = = < < = , r r H Z [ | | <.<.S.~.~.^.@X@Xc.x.x.x.z.z.z.x.x.x.x.5.",
"x.x.x.c.c.x.x.z.z.x.b.b.K.@X@X*XD.Q.b.b.4.:.:.! ! S S S x x x x x x m m S L W ;.;.4.<.>.~.~.%X(.).W.*X*Xc.x.x.z.z.x.x.x.x.x._ _ ",
"c.x.x.x.x.x.x.x.x.x.b.m.m.K.D./.D.D.A.A.D.S.S.s.s.y.y.y.,.,.,.,.,.3.,.,.3.s.a.S.S.D.M.b.Q.Q.~.~.W.~.*X*Xx.x.x.x.x.x.x.x.x.5._ _ "
};
