/* XPM */
static char *_5401c73803a4b10d00659e3f5be6816KwpzxVD37dTeKR10[] = {
/* columns rows colors chars-per-pixel */
"32 32 140 2 ",
"   c #030101",
".  c #0D0000",
"X  c #090A00",
"o  c #020209",
"O  c #130000",
"+  c #1A0000",
"@  c #1A0C04",
"#  c #111610",
"$  c #161719",
"%  c #1A1C1B",
"&  c #290000",
"*  c #260900",
"=  c #2B0D02",
"-  c #300F06",
";  c #380C09",
":  c #2B1301",
">  c #2C1108",
",  c #211809",
"<  c #33100A",
"1  c #2C1E11",
"2  c #321F11",
"3  c #1C201F",
"4  c #1F2120",
"5  c #573A2A",
"6  c #623520",
"7  c #6A3F2C",
"8  c #57552E",
"9  c #544C37",
"0  c #6A4229",
"q  c #674637",
"w  c #6A4532",
"e  c #744938",
"r  c #5B5442",
"t  c #615642",
"y  c #645943",
"u  c #60534A",
"i  c #874F2A",
"p  c #8B583B",
"a  c #955937",
"s  c #94513E",
"d  c #96593C",
"f  c #CC693C",
"g  c #D16A3F",
"h  c #905C46",
"j  c #AE6145",
"k  c #A66A45",
"l  c #AA674A",
"z  c #A16C4A",
"x  c #BB6F4D",
"c  c #AC6F53",
"v  c #A47259",
"b  c #C96742",
"n  c #D06B41",
"m  c #CC7D52",
"M  c #CC7C59",
"N  c #A79C6F",
"B  c #AB9C75",
"V  c #A0917E",
"C  c #A29978",
"Z  c #AD9D7A",
"A  c #DE955E",
"S  c #ED8D5D",
"D  c #FF8C56",
"F  c #F4945D",
"G  c #FE915B",
"H  c #CA9576",
"J  c #C69779",
"K  c #CC937F",
"L  c #D0947A",
"P  c #E48A65",
"I  c #F68E63",
"U  c #F48C6C",
"Y  c #FC8D6A",
"T  c #ED9462",
"R  c #E4906C",
"E  c #EC936F",
"W  c #EF9A6D",
"Q  c #F49564",
"!  c #FD9365",
"~  c #F59569",
"^  c #FD9469",
"/  c #F29A6D",
"(  c #FA9B6C",
")  c #ED9C73",
"_  c #E59F7E",
"`  c #EC9D7D",
"'  c #F29773",
"]  c #FA9674",
"[  c #F49B74",
"{  c #FE9870",
"}  c #F39B7D",
"|  c #FB9C7D",
" . c #EDA074",
".. c #EDA27C",
"X. c #ECA87B",
"o. c #F3A172",
"O. c #FAA175",
"+. c #F4A17C",
"@. c #FAA37C",
"#. c #3EAC86",
"$. c #40AD87",
"%. c #45AF89",
"&. c #4CB28C",
"*. c #59B892",
"=. c #71C69F",
"-. c #73C7A1",
";. c #75C8A2",
":. c #B29F81",
">. c #B1A388",
",. c #C69881",
"<. c #EB9F86",
"1. c #F19F87",
"2. c #DFA782",
"3. c #DEA882",
"4. c #E5A482",
"5. c #EBA382",
"6. c #EEA78B",
"7. c #ECA98C",
"8. c #F3A483",
"9. c #FBA283",
"0. c #85CFAD",
"q. c #8BD7B9",
"w. c #8DD8BB",
"e. c #FCCD89",
"r. c #FFC495",
"t. c #FFC399",
"y. c #E7C4A8",
"u. c #FFC2A0",
"i. c #FBCFA2",
"p. c #FFD5AA",
"a. c #FED9AC",
"s. c #EAD2B8",
"d. c #FDDCB6",
"f. c #FFE1A8",
"g. c #FAE7AF",
"h. c #FFE2B0",
"j. c #FFE5B8",
"k. c #A3E0C2",
"l. c #FFE2C0",
"z. c #FFEECD",
/* pixels */
"-.-.-.-.-.-.-.-.-.-.-.-.-.-.-.-.-.-.-.-.-.-.-.-.-.-.-.-.-.-.-.-.",
"-.-.-.-.-.-.-.-.-.-.-.-.-.-.-.-.-.-.-.-.-.-.-.-.-.-.-.-.-.-.-.-.",
"-.-.-.-.-.-.=.q.-.-.-.-.-.-.-.-.-.-.-.-.-.-.-.-.;.*.;.-.-.-.-.-.",
"-.-.-.q.w.-.-.-.-.-.w.-.-.-.-.-.-.-.-.-.-.-.-.-.;.%.;.-.-.-.-.-.",
"-.-.-.-.-.-.=.w.-.=.w.-.-.-.-.-.-.-.-.-.-.&.$.-.;.%.;.-.$.&.-.-.",
"-.-.-.-.=.;.-.-.=.q.-.-.-.-.-.-.-.-.-.-.-.&.#.;.;.$.;.;.#.%.-.-.",
"-.-.-.-.-.-.-.-.-.-.-.-.-.-.-.-.-.-.-.-.-.-.;.%.-.-.-.%.;.-.-.-.",
"-.-.-.-.-.-.-.-.-.-.-.-.-.-.-.-.-.-.-.-.-.-.-.-.-.-.-.-.-.-.-.-.",
"-.-.-.-.  y u 8   -.-.-.-.-.-.-.-.-.-.-.-.-.-.# t r 9   -.-.-.-.",
"-.-.o   . d.g.j..               . .         X   l.a.i.      -.-.",
"-.-.o p.O 1.s 9.O e.r.r.r.r.r.r.r.r.r.r.r.t.u.2 4.j ~ . y.. -.-.",
"-.-.  @.+ o.G  .+ I ! ! ! ! ! ! ! ! ! ! ! ! G : ..! ! + L O -.-.",
"-.-.. <.+ ) R [ O Y I I I I I I I I I I I Y U = X.P ( + K O -.-.",
"-.-.  q O 9.z | . 7 7 7 7 7 7 7 7 7 7 7 7 7 0 @ 6.x ' . 5   -.-.",
"-.-.-.-.O [ I [ O -.-.-.-.-.-.-.-.-.-.-.-.-.-.3 ..! ( . -.-.-.-.",
"-.-.-.-.. 9.! @.. -.-.-.-.-.-.-.-.-.-.-.-.-.-.$ +.! ^ O -.-.-.-.",
"-.-.    . ` h } O Z B Z B B Z B B Z B B Z Z :., 5.l ' .     -.-.",
"-.-.  2.O ) +.@.O A W / W W / W W / W W / / T : 5.} Q O ,.. -.-.",
"-.-.  8.+ [ ^ ) + D ^ ^ ^ ^ ^ ^ ^ ^ ^ ^ ^ ^ ~ ; ..! Q + L . -.-.",
"-.-.  M + ` w } + f g n g g n g g n g g n n n = 4.p ' O c   -.-.",
"-.-.    . @.[ [   O . . . . . . . . . . . . .   _ / / O . . -.-.",
"-.-.-.-.. ' ] E . -.-.-.-.-.-.-.-.-.-.-.-.-.-.% ` ! I . -.-.-.-.",
"-.-.o   . +.F O..                               ..( Y .     -.-.",
"-.-.o >.. 4.a <.. N B B B B B B B B B B B B C @ _ k ) . V . -.-.",
"-.-.  3.+ } ) | + W W / W W / W W / W W / / T > _ } ~ O J . -.-.",
"-.-.  +.+ ) ! ) + ! ! ! ! ! ! ! ! ! ! ! ! ! ^ < X.! F + L . -.0.",
"-.-.o m & 7.e 5.+ f n n n n n n n n n n n n b * 4.d ' . v . -.k.",
"-.-.  O . ..( ( . O . . . . . . . . . . . . . . 8.[ T O O . -.k.",
"-.-.-.-.. ' ! [ . -.-.-.-.-.-.-.-.-.-.-.-.-.-.4 ..! ~ . -.-.-.=.",
"-.-.      ] ] ( O                             o } { I .     -.-.",
"-.-.  z.O 8.6 4.O f.h.h.h.h.h.h.h.h.h.h.h.h.d.1 5.i E . s.. =.-.",
"-.-.  4.+ [ ( [ O U ~ ~ ~ ~ ~ ~ ~ ~ ~ ~ ~ Q S - ` ^ ! O H O =.-."
};
