/* XPM */
static char *result[] = {
/* columns rows colors chars-per-pixel */
"64 64 10 1 ",
"  c #187030",
". c #189000",
"X c #28B000",
"o c #60D030",
"O c #208840",
"+ c #6BC079",
"@ c #65C686",
"# c #84D099",
"$ c #96D7A9",
"% c #ABDFAE",
/* pixels */
"$$$$$$#$$$$$$$$oo.  . .  O$$$$$$$$$$$$#$$$$$$$$$$$$$$$#$$$$$$$$$",
"#$$$$##$$$%%%$ooX..X.. oo$%%%$$$#$$$$##$$$%%%$$$#$$$$##$$$%%%$$$",
"$$$$##$$$$$$$oXXX.XXX. XXo.$$$$$$$$$##$$$$$$$$$$$$$$##$$$$$$$$$$",
"$%%$$$$$$$$$$XX.  XXXoO .XX.$$$$$%%$$$$$$$$$$$$$$%%$$$$$$$$$$$$$",
"$%%$$$%%$$$$$..  O.Xo.O%$..$$$$#$%%$$$%%$$$$$$$#$%%$$$%%$$$$$$$#",
"$$$$$$$$$$$$$$$$$$O.oO$$$$$$$$$$$$$$$$$$$$$$$oX$$$$$$$$$$$$$$$$$",
"$$$$$$#$$$$$%$$$$$$OO$#$$$$$%$$$$$$$$$#$$$$$ooXX$$$$$$#$$$$$%$$$",
"$$$$$##$$#$$$$$#$$$$$##$$#$$$$$#$$$$$#.XXoo$oXXX $ooX##$$#$$$$$#",
"$$$$##$$$$$$$$##$$$$##$$$$$$$$##$$$$##$XXXooXXX. ooXX#$$$$$$$$##",
"$$$$$$$$$$$$$##$$$$$$$$$$$$$$##$$$$$$$$.XXXo.X.. XXXX$$$$$$$$##$",
"$$$$$$$$$$$$$$$$$$$$$$$$$$$$$$$$$$$$$$$$...    .... $$$$$$$$$$$$",
"$#$$$#$$$$$%%$$$$#$$$#$$$$$%%$$$$#$$$#$$$oo.  . .  O$#$$$$$%%$$$",
"$$$$$$$$$$#$$$$$$$$$$$$$$$#$$$$$$$$$$$$$ooX..X.. oo$$$$$$$#$$$$$",
"$$$%%$$$###$$$$@$$$%%$$$###$$$$@$$$%%$$oXXX.XXX. XXo.$$$###$$$$@",
"$$$%%$$##$$$$$++$$$%%$$##$$$$$++$$$%%$$XX.  XXXoO .XX.$##$$$$$++",
"%$$$$$$$$$$$$@++%$$$$$$$$$$$$@++%$$$$$$..  O.Xo.O$$..$$$$$$$$@++",
"$$$$$$#$$$$$$$$$$$$$$$#$$$$$$$$$$$$$$$#$$$$$O.oO$$$$$$#$$$$$$$$$",
"#$$$$##$$$%%%$$$#$$$$##$$$%%%$$$#$$$$##$$$%%%OO$#$$$$##$$$%%%$$$",
"$$$$##$$$$$$$$$$$$$$##$$$$$$$$$$$$$$##$$$$$$$$$$$$$$##$$$$$$$$$$",
"$%%$$$$$$$$$$$$$$%%$$$$$$$$$$$$$$%%$$$$$$$$$$$$$$%%$$$$$$$$$$$$$",
"$%%$$$%%$$$$$$$#$%%$$$%%$$$$$$$#$%%$$$%%$$$$$$$#$%%$$$%%$$$$$$$#",
"$$$$$$$$$$$$$$$$$$$$$$$$$$$$$$$$$$$$$$$$$$$$$$$$$$$$$$$$$$$$$$$$",
"$$$$$$#$$$$$%$$$$$$$$$#$$$$$%$$$$$$$$$#$$$$$%$$$$$$$$$#$$$$$%$$$",
"$$$$$##$$#$$$$$#$$$$$##$$#$$$$$#$$$$$##$$#$$$$$#$$$$$##$$#$$$$$#",
"$$$$##$$$$$$$$##$$$$##$$$$$$$$##$$$$##$$$$$$$$##$$$$##$$$$$$$$##",
"$$$$$$$$$$$$$##$$$$$$$$$$$$$$##$$$$$$$$$$$$$$##$$$$$$$$$$$$$$##$",
"$$$$$$$$$$$$$$$$$$$$$$$$$$$$$$$$$$$$$$$$$$$$$$$$$$$$$$$$$$$$$$$$",
"$#$$$#$$$$$%%$$$$#$$$#$$$$$%oX$$$#$$$#$$$$$%%$$$$#$$$#$$$$$%%$$$",
"$$$$$$$$$$#$$$$$$$$$$$$$$$#ooXX$$$$$$$$$$$#$$$$$$$$$$$$$$$#$$$$$",
"$$$%%$$$###$$$$@$$$%%.XXoo#oXXX $ooX%$$$###$$$$@$$$%%$$$###$$$$@",
"$$$%%$$##$$$$$++$$$%%$XXXooXXX. ooXX%$$##$$$$$++$$$%%$$##$$$$$++",
"%$$$$$$$$$$$$@++%$$$$$.XXXo.X.. XXXX$$$$$$$$$@++%$$$$$$$$$$$$@++",
"$$$$$$#$$$$$$$$$$$$$$$#...    .... $$$#$$$$$$$$$$$$$$$#$$$$$$$$$",
"#$$$$##$$$%%%$$$#$$$$##$oo.  . .  O$$##$$$%%%$$$#$$$$##$$$%%%$$$",
"$$$$##$$$$$$$$$$$$$$##$ooX..X.. oo$$##$$$$$$$$$$$$$$##$$$$$$$$$$",
"$%%$$$$$$$$$$$$$$%%$$$oXXX.XXX. XXo.$$$$$$$$$$$$$%%$$$$$$$$$$$$$",
"$%%$$$%%$$$$$$$#$%%$$$XX.  XXXoO .XX.$%%$$$$$$$#$%%$$$%%$$$$$$$#",
"$$$$$$$$$$$$$$$$$$$$$$..  O.Xo.O$$..$$$$$$$$$$$$$$$$$$$$$$$$$$$$",
"$$$$$$#$$$$$%$$$$$$$$$#$$$$O.oO$$$$$$$#$$$$$%$$$$$$$$$#$$$$$%$$$",
"X$$$$##$$#$$$$$#$$$$$##$$#$$OO$#$$$$$##$$#$$$$$#$$$$$##$$#$$$$$o",
"XX$$##$$$$$$$$##$$$$##$$$$$$$$##$$$$##$$$$$$$$##$$$$##$$$$$$$$oo",
"XX $ooX$$$$$$##$$$$$$$$$$$$$$##$$$$$$$$$$$$$$##$$$$$$$$$.XXoo#oX",
"X. ooXX$$$$$$$$$$$$$$$$$$$$$$$$$$$$$$$$$$$$$$$$$$$$$$$$$$XXXooXX",
".. XXXX$$$$%%$$$$#$$$#$$$$$%%$$$$#$$$#$$$$$%%$$$$#$$$#$$$.XXXo.X",
" .... $$$$#$$$$$$$$$$$$$$$#$$$$$$$$$$$$$$$#$$$$$$$$$$$$$$$...   ",
". .  O$$###$$$$@$$$%%$$$###$$$$@$$$%%$$$###$$$$@$$$%%$$$###oo.  ",
".. oo$$##$$$$$++$$$%%$$##$$$$$++$$$%%$$##$$$$$++$$$%%$$##$ooX..X",
"X. XXo.$$$$$$@++%$$$$$$$$$$$$@++%$$$$$$$$$$$$@++%$$$$$$$$oXXX.XX",
"XoO .XX.$$$$$$$$$$$$$$#$$$$$$$$$$$$$$$#$$$$$$$$$$$$$$$#$$XX.  XX",
"o.O$$..$$$%%%$$$#$$$$##$$$%%%$$$#$$$$##$$$%%%$$$#$$$$##$$..  O.X",
"oO$$##$$$$$$$$$$$$$$##$$$$$$$$$$$$$$##$$$$$$$$$$$$$$##$$$$$$$$O.",
"O%%$$$$$$$$$$$$$$%%$$$$$$$$$$$$$$%%$$$$$$$$$$$$$$%%$$$$$$$$$$$$O",
"$%%$$$%%$$$$$$$#$%%$$$%%$$$$$$$#$%%$$$%%$$$$$$$#$%%$$$%%$$$$$$$#",
"$$$$$$$$$$$$$$$$$$$$$$$$$$$$$$$$$$$$$$$$$$$$$$$$$$$$$$$$$$$$$$$$",
"$$$$$$#$$$$$%$$$$$$$$$#$$$$$%$$$$$$$$$#$$$$$%$$$$$$$$$#$$$$$%$$$",
"$$$$$##$$#$$$$$#$$$$$##$$#$$$$$#$$$$$##$$#$$$$$#$$$$$##$$#$$$$$#",
"$$$$##$$$$$$$$##$$$$##$$$$$$$$##$$$$##$$$$$$$$##$$$$##$$$$$$$$##",
"$$$$$$$$$$$$$##$$$$$oX$$$$$$$##$$$$$$$$$$$$$$##$$$$$$$$$$$$$$##$",
"$$$$$$$$$$$$$$$$$$$ooXX$$$$$$$$$$$$$$$$$$$$$$$$$$$$$$$$$$$$$$$$$",
"$#$$$#$$$$$%%.XXoo$oXXX $ooX%$$$$#$$$#$$$$$%%$$$$#$$$#$$$$$%%$$$",
"$$$$$$$$$$#$$$XXXooXXX. ooXX$$$$$$$$$$$$$$#$$$$$$$$$$$$$$$#$$$$$",
"$$$%%$$$###$$$.XXXo.X.. XXXX$$$@$$$%%$$$###$$$$@$$$%%$$$###$$$$@",
"$$$%%$$##$$$$$+...    .... $$$++$$$%%$$##$$$$$++$$$%%$$##$$$$$++",
"%$$$$$$$$$$$$@++oo.  . .  O$$@++%$$$$$$$$$$$$@++%$$$$$$$$$$$$@++"
};
