/* XPM */
static char *result[] = {
/* columns rows colors chars-per-pixel */
"64 64 163 2 ",
"   c #276438",
".  c #3B6C4E",
"X  c #387343",
"o  c #3E754E",
"O  c #3C7D4B",
"+  c #417A4F",
"@  c #38A041",
"#  c #3EA64C",
"$  c #408A4D",
"%  c #43AB4E",
"&  c #4EAE4E",
"*  c #4CB14E",
"=  c #44A552",
"-  c #44AF51",
";  c #4DAE51",
":  c #43A55C",
">  c #4DAF5E",
",  c #50AE50",
"<  c #51AA58",
"1  c #45B352",
"2  c #4DB354",
"3  c #4BB358",
"4  c #53B354",
"5  c #58B354",
"6  c #54BA57",
"7  c #58B857",
"8  c #52B55D",
"9  c #5BB75D",
"0  c #54BB5C",
"q  c #5CBC5D",
"w  c #62B759",
"e  c #63BC5D",
"r  c #489F68",
"t  c #589D67",
"y  c #5A9F68",
"u  c #4FAF6F",
"i  c #53AC64",
"p  c #52A168",
"a  c #5AA36B",
"s  c #56AA6B",
"d  c #5CAD69",
"f  c #4DB363",
"g  c #4AB46A",
"h  c #53B265",
"j  c #54BC64",
"k  c #5EBE60",
"l  c #56B16D",
"z  c #54BF6D",
"x  c #59BF6C",
"c  c #54A771",
"v  c #56AE72",
"b  c #59AD72",
"n  c #56B370",
"m  c #5FB974",
"M  c #62BD61",
"N  c #69BF64",
"B  c #64BC6E",
"V  c #69B076",
"C  c #68B977",
"Z  c #68B378",
"A  c #57C15F",
"S  c #5BC15E",
"D  c #62C05F",
"F  c #57C566",
"G  c #5EC162",
"H  c #5ECA67",
"J  c #55C16C",
"K  c #5CC46B",
"L  c #5CCA6C",
"P  c #5EC073",
"I  c #63C365",
"U  c #6AC466",
"Y  c #61C966",
"T  c #68CA67",
"R  c #66C668",
"E  c #6BC66A",
"W  c #64CA6A",
"Q  c #6BCB6C",
"!  c #72CC6D",
"~  c #67D16D",
"^  c #6CD16E",
"/  c #72D16F",
"(  c #61C771",
")  c #66CF70",
"_  c #6ECE72",
"`  c #62C47B",
"'  c #69C77D",
"]  c #6ECD7B",
"[  c #72CF71",
"{  c #7ACF71",
"}  c #73CD7E",
"|  c #67D072",
" . c #6ED171",
".. c #6EDA74",
"X. c #6FD67D",
"o. c #6EDA7B",
"O. c #74D374",
"+. c #7AD475",
"@. c #74D875",
"#. c #7CD877",
"$. c #75D679",
"%. c #7AD679",
"&. c #75DA7A",
"*. c #7BDB7C",
"=. c #76E17D",
"-. c #7BE17E",
";. c #80D575",
":. c #82D877",
">. c #81DB7D",
",. c #81E17F",
"<. c #66C585",
"1. c #6CCE81",
"2. c #74CC82",
"3. c #77D682",
"4. c #74DD82",
"5. c #7DDE81",
"6. c #7FD08B",
"7. c #75E384",
"8. c #7DE282",
"9. c #7EE886",
"0. c #75E488",
"q. c #7BE58B",
"w. c #81DE82",
"e. c #84DD8D",
"r. c #84D099",
"t. c #8DD79A",
"y. c #85DC98",
"u. c #8BDB9C",
"i. c #83E384",
"p. c #89E385",
"a. c #84E886",
"s. c #89E887",
"d. c #85E689",
"f. c #8BE689",
"g. c #85EA8A",
"h. c #8BEA8B",
"j. c #90E486",
"k. c #92E887",
"l. c #92EB8D",
"z. c #98EE8D",
"x. c #8BF08A",
"c. c #82E690",
"v. c #8CE595",
"b. c #83EA91",
"n. c #88EC92",
"m. c #8CE59E",
"M. c #8DEA9A",
"N. c #91EE91",
"B. c #92E19F",
"V. c #8CF392",
"C. c #8DF29A",
"Z. c #8FF899",
"A. c #93F294",
"S. c #93F996",
"D. c #97F698",
"F. c #9CFA9C",
"G. c #96D7A9",
"H. c #99EFA4",
"J. c #98E6AC",
"K. c #96E8AA",
"L. c #8EF0A3",
"P. c #9FE1B1",
"I. c #C1FFDB",
/* pixels */
"G.<.<.r.<.d d B 8 h 3 F V.V.@.6 A A &.9 Q  . .d.d.0 %.T I *.p.w.5.I N.%.$.9 q &.*.5 ^ Q O.i.w M { N :.>.a.-.F F o.4.4.g Z + + G.",
"G.r.<.G.O t.t.< = < Z.H =.=...S g.g.& _ $.%.R &.*.O.Q d.f.*.s.p.p.U w.+.O.I h., ;  .@.&.Y *.$.{ ! j.;.;.h.a.0 0 0.J z <.r r.  G.",
"G.r.<.G.+ t.t.i ; < C.H =.=...H h.h.; ] $.$.R *.*.O.Q s.f.%.h.p.p.R w.%.#.I h., & Q &.O.G *.[ [ ! j.;.;.h.-.6 A 0.J J <.p r.  G.",
". <.o $ y B.B.M.h k &.W ~ ~ Y S  . .V.E R R d.2 2 h.k O.+.h.e.p.p.E ! R U 9 O.A.A.W Y H d.4 N.N.w { k.k.a.a.# % L J J # K.r.O G.",
"r.P.P.t $ 6.r.v.9 9 8...A 6 -.~ Q ~ i.k w.8.9.g.g.Y k *.*.*.>.*.>.[ 9 *.*._ Q i.i.0 i.8.i.g.I I e :.:.>.:.:.A 6 1 b.q.L.y.a a X ",
"r.J.J.u.d B B e._ _ ,./ @.=.,.,.O._ O.$.d.d.5. . ._ h.O.O.5.s.I I O.*.i.i.i. .O.O.&.g.d.7. .Q [ j.;.>.>.k.U 2 2 q.q.q.L.h C C V ",
"r.J.J.u.d B B e._ ] -./ #.=.,.-.[ ^ _ 3.d.g.8. . .O.h.O.O.5.h.I U [ *.p.p.w. ._  .&.i.g.8. .O./ k.{ >.:.k.D 5 4 q.q.q.C.h C C V ",
"m p p M.5.> < f.A.A.#.-.s.x.s.@.W Q d.5.$.$.Q k 0 F.$.i.p.h.R p.i.*.h.h.d.O.Q a.d.*...o.W A D.F.+.w.k.k.U ,.q 7 9.g.b.n.= 2.2.d ",
"1.> i q.3.e.w.I i.w.O.,.U U l.^ i.i.G k 8.5.O.W R s.i.*.*.k n.O.[ i.I n.A.Q p.G I G *.8...W g.g.,.:.N w z./ *.#.g.9.9.- b.5.3.B ",
"1.f f 5.3.8.e.B i.w.+.i.U D l.Q i.i.G k 8.4.O.Q Q d.i.*.*.e A.O.O.i.U N.n.Q i.k q k -.8...W a.a.,.:.w U z.{ -.#.g.9.9.3 b.6.5.` ",
"5.4.4.# g.) _ k w.i.q #.,.,.5 #.*.*.$.H 0 0 *.$.$.*.*.#.*.9 *.q q %.i.4 5 *.*.*.%.I 0 0 =...=.#.:.:.w w :.w &.#.@.G S &.4.n.n.= ",
"L 0.7.X.0 k G *.e M U #.#.#.D / M k R  .R Y E 5.5.O.9 q I *.M W R *.$.k q O.M R R Q Y T W -.^ / e D >.:.D D #.#.@.S S  .F R H _ ",
"K L ~ =. .6 4 k *.*.>.U +.+.#.M D.D.U 5 h.g.I Q Q *.[ 5 4 G 5.8.i.Y $.*.*.U D.R R 7 g.h.G W -.-./ 5 e e :.p.U U @.*.-.Y S.Y H 4 ",
"L W W 7.~ 6 2 G >.>.w.U +.+.#.U D.D.T 5 h.h.I Q R w.O.4 5 k *.i.i.I $.*.*.I D.R R 5 h.h.Y W -.-./ 5 e e >.,.D U @.#.#.D S.G H 6 ",
"..S A A S A.A.i.#.*.R i.M I p.& A.S.i.q x.A.[ M I 9 I V.A.i.*.W R 8.I i.i.* D.i.p.M A.N./ S 7 7 D A.a.a.#.E ,.,.D a.,.& S.a.-.A ",
"& ^ ^ g.9.s.s.Q I q i.5.h.s.I 9 ,.*.a.h.O.O.; [ [ h.i.f.g.Q S 8.8.8.g.G q 9 *.i.i.n.O.O.& / h.h.a.s.T T k p.>.,.s.e D 7 -.a.,.x.",
"O./ O.A.h.T T [ _ E 5.x p.i.i.W [ [ A.@.,.>./ O.O.A.h.R R O.Q 8.*.G i.i.p.W O.A.A.#.,.:.{ / A.A.s.I @. .) 5.B I i.p.p.E / A.A.{ ",
"+./ ! z.h.U I O.E E 5.K i.i.d.Q O. .A.+.>.,.O.O.O.A.h.R R O.W 8.8.H i.i.i.Q [ A.A.#.:.,.{ / A.z.h.T @. .) 5.k M i.i.p.T / A.z.@.",
":.w.j.j.>.R R *._ ) 5.K ) _ d.p.$.%.$.h.>.*.>.p.p.f.w.R R *.Q 8.8.G Q d.d.i.%.O.#.l.,.:.,.,.s.s.*.Y &.-.) 5.I I _ s.f.e.+.{ @.k.",
";.z.z.! ! p.p.5._ _ ] d.3 3 5.8.Q _ Q s./ ! #.l.N.Q Q d.i.*. . . .a.2 8.i.8.! Q Q f./ / ;.z.! ! Q g.=.&._ ) i.q.< w.w.w.! ! ! k.",
":.>.>.e { >.w.k f.f.R ] i.d.k #.,.*.4 *.q q #.,.w.I O.*.5.q d.I Y O.i.k D *.*.4 , *.w w #.>.D D O.-.0 0 g.R $.$.d.M M ;.,.5 5 ;.",
";.w.>.N +.5.%.k c.d.R X.q.q.k *.,.*.4 #.w q #.,.w.M O.*.*.q d.I I O.i.G S *.w.4 5 *.e 9 #.>.D D O.*.k 0 g.R } $.e.M M #.:.5 5 ;.",
"{ p.s.k $.R N 5.e.p.w.M A.A.$.q 9 q *.5 ^ Q ^ i.d.k $.R T *.p.w.w.I A.$.O.9 9 *.*.0  ._ / a.q q @.T *.*.i.5.I M A.%.#.q S #.@.5 ",
"I *.&.O.Q p.s.%.h.h.p.N w.w.$.I h.h.2 Q &.@.Y *.&.O.Q s.s.%.k.p.p.U >.$.$.I h.; & Q &.@.G *.O.@.Q h.%.%.h.p.R E >.+.&.D s.& & ^ ",
"I &.*.O.Q s.s.%.h.h.p.E >.*.%.I h.h.& Q $.$.G &.*.O.Q h.s.*.f.p.p.I >.$.#.I h.; * Q &.$.G &.$.O.Q h.*.#.h.p.E E >.$.$.I s.; & ^ ",
"i.4 2 V.k O.O.h.p.p.p.E ! [ Q 9 O.O.A.W Y Y a.4 2 V.0 O.O.h.e.f.f.E [ E R q O.A.A.Q Y T g.4 n.h.k [ h.h.e.s.E E [ R Q q [ A.A.W ",
"i.g.g.I k *.*.*.>.>.*.{ 9 9 *._  .Q i.0 8.8.i.g.d.Y I #.*.*.>.%.*.[ 9 *.5.Q Q p.i.0 8.8.9.g.I I k *.*.*.>.>.[ { 9 *.w._ Q i.i.0 ",
"-. . ._ h.O.$.*.h.d.U } *.*.p.i. . .O.&.a.g.8. . ._ h.O.O.5.s.I N O.*.p.p.i._  . .&.g.g.*. . . .h.[ 5.*.s.U [ O.*.p.p.w. .O. .*.",
"*. . . .h.O.O.5.s.s.R [ 5.*.p.5.O._ _ &.g.a.*. . ._ h.O.O.*.h.U I O.*.p.p.i._ ^  .&.g.g.-. ._  .h.O.5.5.f.I O.O.*.p.p.i. .O._ &.",
"W G k F.$.i.i.h.E E i.%.h.f.f.O.Q W d.*.O.O.^ 0 S F.$.i.i.h.R i.p.*.h.h.d.O.Q d.d.*.O.O.Q G D.F.$.p.h.h.R i.*.*.f.s.s.O.Q i.g.*.",
"@.Q W s.8.*.*.M V.N.O.i.R R N.Q i.i.k k 8.i.O.Q W h.w.*.5.k A.O.[ i.R n.N.Q i.q G k *.8.O.W i.h.i.*.k k N.O.i.p.R n.n.Q i.k k q ",
"&.&.$.*.%.*.*.9 *.*.k %.w.w.4 *.#.*.%.T 0 0 *.$.$.#.*.*.*.9 *.9 9 $.i.4 5 %.*.*.%.T q q *.&.*.*.*.*.9 9 *.k $.%.w.7 4 *.*.%.*.T ",
"*.$.$.*.%.*.*.9 *.*.q %.w.i.5 %.*.*.%.Y 7 9 *.$.$.*.*.*.*.9 *.q q *.i.4 4 %.*.*.*.I 9 9 *.&.*.*.%.*.q 9 *.9 *.*.w.4 5 &.*.*.%.R ",
"W 8.>.O.9 G M *.M G R $.$.&.k O.M k R O.R I Q 5.*.O.9 k M *.G R R *.$.k M O.k R R _ T I Q 5.@.O.9 q *.*.G R *.&.*.q e O.k R R _ ",
"T R W *. .5 4 k *.5.i.T O.O.*.I D.D.R 4 h.h.I Q Q *._ 5 5 G *.i.i.T O.*.*.I D.T R 4 h.h.U R w.*. .5 I S *.i.I Y O.*.*.I A.R T 4 ",
"[ I I 9 I A.A.d.&.*.W 8.G H i.* D.A.i.e N.A. .M I 9 I A.V.d.*.W Y 8.G d.p.; A.i.p.k N.A.Q I 9 9 I A.d.i.$.T i.i.G i.i.2 A.i.p.k ",
"_ I M 9 I N.A.d.*.&.W i.H G i.& A.A.p.M N.A.[ N I 9 I A.A.i.*.Y W 8.I i.i.2 S.p.p.M N.N.! I 9 9 I A.g.d.*.W 9.8.H i.i.2 D.p.i.k ",
"& [ / h.i.s.g.Q S G 9.*.h.g.I 9 5.5.p.n.[ [ , [ [ h.i.h.h.Q G 8.i.8.g.G k 9 *.i.w.N.O.O.& O.h.l.i.h.W Q q 8.5.-.h.M S 9 5.p.p.n.",
"O.O.O.A.h.T Y O.Q W *.G i.9.i.W [ _ A.+.w.w.O.[ O.A.h.Y W O.W *.8.G 9.i.p.W [ A.N.%.w.w.O.O.A.A.h.R O.O.Q 8.G G 8.i.d.W [ A.A.+.",
">.p.p.h.5.R W *.Q Q 5.Y Q Q g.i.$.#.$.l.>.>.w.p.p.f.*.T R *.~ 8.8.G Q d.d.i.%.$.$.h.>.>.>.p.h.f.*.R *.*.Q 8.G H Q g.d.p.%.O.O.N.",
"w.p.f.h.*.R R *.W Q 8.H Q Q a.i.%.#.$.l.*.>.w.p.p.f.5.T I *.W 8.-.H Q g.i.i.$.$.#.l.w.>.>.p.h.h.w.R *.*.W 8.G H Q g.i.i.*.$.$.l.",
"+.l.N.E Q i.h.*. .Q  .a.2 2 i.8._ Q Q h.[ [ %.N.N.Q Q f.p.*._ _ _ i.2 8.i.5.! Q Q f.[ [ *.z.Q Q Q g.*.*._  .i.a.2 i.i.*.Q ! Q f.",
"%.w.w.M $.>.*.q i.h.Y O.i.i.G &.5.*.4 *.q 9 #.w.w.I O.*.5.0 s.I Y O.i.M G *.*.4 4 *.9 9 &.>.D D O.*.q k a.Y O.@.i.I q &.*.4 4 #.",
"%.w.w.I $.*.5.q d.d.I O.9.i.G &.*.i.4 *.q 9 %.w.5.N O.5.*.k s.R U $.i.S e *.5.4 4 *.q e #.>.D D $.*.q q d.I O.O.i.G I *.i.< 4 *.",
"/ s.a.q O.T I *.p.i.5.x V.A.$.0 A F o.8  .|  .a.g.0 #.I I 5.p.w.*.I A.%.$.9 9 *.%.4 Q ^ / a.S S #.I *.*.p.,.D I A.$.@.9 7 &.#.6 ",
"D *.#.@.E s.s.*.n.f.d.W 5.4.$.F 9.9.1 | o.o.H *.*.O.Q s.s.%.h.p.p.U >.%.+.I h.; 2  .$.$.D #./ @.Q i.#.#.s.p.U U >.O.$.I g.* * ~ ",
"a.4 4 k.w +.[ k.p.p.s.E _ _ Q k X. .V.W H H i.2 2 V.e O.[ v.p.f.s.E [ R R e O.A.A.W Y I a.4 x.l.e O.h.k.j.p.E ! ! T T e / V.V.T ",
",.4 4 h.e [ +.h.p.p.f.E _ Q W G X. .C.W K H a.4 4 h.k O.O.h.p.p.p.E [ E Q 9 O.V.A.W I Y a.4 h.x.e O.k.h.,.p.E E ! T T D O.V.V.W ",
",.s.s.D e >.:.>.>.>.:.{ w 9 5.[ _ _ i.k 5.5.i.g.g.I S *.*.*.w.#.#.[ 9 5.*._ Q i.i.0 w.i.e.s.I N e >.;.>.w.:.{ { 9 >.>.! ^ i.i.7 ",
"-./ / { j.{ { >.j.p.U ;.;.>.w.w.} { [ %.b.d.5.O. . .h.O.O.5.f.I I O.*.p.p.i. .O.O.&.i.d.*.[ { { h.O.w.>.k.N { [ >.w.p.,.! / / *.",
"T S w F.+.p.p.l.! U ,.:.k.f.k.{ E E e.w.$.+.Q 0 S F.$.i.i.N.R w.p.*.f.h.h.O.W i.h.*.O.$._ M F.H.%.p.k.k.E w.;.#.f.f.f.O.Q s.a.*.",
"/ D w F.#.,.a.k.U U ,.>.f.k.f.} E E p.*.$.} Q k S F.$.i.i.h.E i.w.*.h.s.d.O.Q d.a.*.$.O.Q M F.F.%.e.l.v.E w.>.>.k.f.f.{ U i.h.*.",
"/ T Q f.>.#.*.e l.z./ ,.U U z.! w.e.e N w.w.O.W Q d.8.#.*.k A.O.O.i.I N.N.Q p.G G k 5.5.} E c.h.w.w.M M A.O.i.,.T n.N._ i.G k k ",
"*.&.&.&.&.*.*.7 -.#.w #.i.>.5 #.*.5.:.E k w *.%.$.*.*.*.*.9 *.9 k %.w.5 4 &.*.%.*.I q 0 5.3.5.3.%.>.9 0 *.9 *.&.i.6 4 &.*.&.3.( ",
"& 5.4. .Y T Y @.6 7 * #.&.@.q O.k w E _ N B Q w.w.O.9 M I *.I T R *.$.k k O.M R R _ R R E 5.$. .h k 5.*.G Y *.*.W G F *.= ( W 4.",
"% 5.8. .G Y R  .7 6 * &.#.@.e / M k R [ R R R *.*.O.q k q *.G R W *.$.k k O.e R R _ R R W 5.X.X.k k &.5.G Y *.=.Y G G 7.% L W X.",
"( L P 5.F @ @ R @...x.S @.@.=.D D.D.T 7 f.h.I Q R 5.[ 4 4 k *.i.i.I $.#.*.T A.R R 8 f.n.R ( 8.5...4 A S &.9.H H &.&.o.1 F # # j ",
"f f f j > F F 3 V.x.A -.S S ,.2 A.S.,.D A.N._ I I 7 I A.A.d.*.R W 8.Y i.i.; A.p.p.k N.A.} k j 0 H V.9.9.&.W q.9.F | | j K K m f ",
"f f f j 3 j F 3 V.V.6 -.S S a.* D.A.a.S N.N.[ M M 9 I V.V.d.&.W W 9.I i.i.; D.p.i.k N.N._ K 9 j G V.9.a.=.H 8.8.j | | j K J J 3 ",
"g : : ` j x x 3 1 3 7.-.x.x.S S *.#.a.l.O.O.; O.O.h.i.h.h.Q G 8.8.5.g.q M 0 5.i.p.N.+.[ ;  .h.h.9.g.T ~ S -.....Z.8 8 j x f f P ",
"u n n n l = # c.2 3 g.S -.,.,.~ ^ / V.+.w.>.O.{ O.A.h.R T O.Q =.5.G i.i.d.W O.A.A.+.w.w.O.O.A.A.h.I / @.Q -.S S  .C.C.h f ' ' f ",
"p u v <.m f h ] 3.3.$.Y ~ ~ x.,.#.+.{ x.>.>.w.p.p.f.>.R Q *.Q 5.*.Y ~ g.d.i.%.O.O.l.>.>.>.p.k.k.>.U *.#.Q w.Q Q ; e.q.M.s m C s ",
"r b v <.m h i ] $.3.@.G ^ ^ ,.,.O.&.+.k.>.>.w.w.s.h.5.R R *.Q 5.8.Y Q i.d.p.%.$.+.v.:.w.>.j.j.j.>.U #.-.Q *.W _ ; 5.d.m.h m m s ",
"I.c c c p m.m.} x j *.s.* 5 ,.,.! ! ! f.[ ! %.N.N.! Q i.d.*.~ ~  .i.2 i.8.8.! Q [ e.{ ! ;.z.! ! ! s.#.:.! _ %.5.E 2.2.e.d s s s "
};
