/* XPM */
static char *b457f0ea2b8b4305944fa40bf30e5d34s42p8a0zYrRwMvum[] = {
/* columns rows colors chars-per-pixel */
"64 64 20 1 ",
"  c #101010",
". c #632900",
"X c #842900",
"o c #BD6B00",
"O c #CE7B29",
"+ c #6BC079",
"@ c #D69452",
"# c #E6AD5A",
"$ c #FFD66B",
"% c #297384",
"& c #5A9CA5",
"* c #65C686",
"= c #84D099",
"- c #96D7A9",
"; c #ABDFAE",
": c #FFE69C",
"> c #8CC5CE",
", c #B5E6EF",
"< c #D6CECE",
"1 c white",
/* pixels */
"------=---------------=---------------=---------------=---------",
"=----==---;;;---=----&&&&&%;;---=----==---;;;---=----==---;;;---",
"----==-------------&&&&&&&%%%-------==--------------==----------",
"-;;-------------&&&&,,,,,>>>%%%%-;;--------------;;-------------",
"-;;---;;-------&&&,,,,,,>>>>>>%%-;;---;;-------=-;;---;;-------=",
"---------------,,,,,,,>>>>>>>>>>%%------------------------------",
"------=-----;%%,,,,,,>>>>>>>>>>>>%%---=-----;---------=-----;---",
"-----==--=--%%%,,,,,>>>>>>>>>>>>>>%%-==--=-----=-----==--=-----=",
"----==------%>>,,,,>>>>>>>>>>>>>>>>%==--------==----==--------==",
"-----------%%>>>>>>>>>>>&&>>>>>>>>>%%--------==--------------==-",
"-----------%%>>>>>>>>>>&&>>&&>>>>>>%%---------------------------",
"-=---=----%%&>>>>>>>>>>&>>&&&&&>>>&&%%-----;;----=---=-----;;---",
"----------%%X>>>>>>>>>>&>& <<<&>>>&&  ----=---------------=-----",
"---;;---==%%1&>>>>>>>>>>    <<%&&&&&  --===----*---;;---===----*",
"---;;--==-%%1&&>>>>>>>>>    <<%%&&&&  -==-----++---;;--==-----++",
";---------%%X&>>>>>>>>>>   XX1%%&&&&  -------*++;------------*++",
"------=---%% >>>>>>>>>>>   XX1%%&&&&  =---------------=---------",
"=----==---%% >>>>>>>>>>>1  XX1%&&&&&  =---;;;---=----==---;;;---",
"----==---%%,,>>>>>>>>>>>XX XX1&&&&&&  --------------==----------",
"-;;------ ,,>>>>>>>>>>>>>>>&&&&&&&&&  -----------;;-------------",
"-;;---;;-  ,>&&>&&>>>>>>>>>&&&&&&&&& -;;-------=-;;---;;-------=",
"----------  %>>>>>>>>>>>>>&&&%&&&&&  ---------------------------",
"------=----   >>>>>%%%%%%%%XXX&&&&&%--=----&%---------=-----;---",
"-----==--=--    >>&%%%%%%%XXXX&&&&&%-==--=-&&%%=-----==--=-----=",
"----&&-&&--  &&   XXOOOOOXXXX&&&&   &&--&>>>&%%%----==--------==",
"----%>>&&%    &&&&XXXXXXXXX&&&&%  o%>>>>>>>%&&&  ------------==-",
"----%>>>&%     &&&&XXXXXX&&&&&%% oo%>>>>>>%%&&& ----------------",
"-=&&>>>>>>>&&   %%&&&&&&&&&   OO<<<&>>>>>%%%&&  -=---=-----;;---",
"--%%>>>>>>>>>>>&%%%         ###OO%%>>>>>>&&&&  -----------=-----",
"--%%%>>>>>>>>>>&&%%       ######O%>>>>>>&&&&&  *---;;---===----*",
"---;%%&>>>>>>>&&&OO############%&&>>&&>>&&&& -++---;;--==-----++",
";----%%&&&&&&&&&&O##$$$$$#####%%&&&&&&&&&&---*++;------------*++",
"------=&&&&&&&&&OO$$$$$$$###OOO%&&&&&&&&  ------------=---------",
"=----==--%%&&&&OOO$$$$$$OOOO$$O%%&&&&&&  o..;---=----==---;;;---",
"----==------   O::OOOOOOO#$$$$OO#  &&&  oo..--------==----------",
"-;;---------- OO::OOOOOO##$$$$O###   &  oo..-----;;-------------",
"-;;---;;-----OO:::$##::::::$$######.  <ooo..---=-;;--%%%%%%----=",
"-------------OO::::##::::::$$O$####.<<<<oo  ------%%%%>>>>&-----",
"------=-----;OO::::##::::::$$O$$####<<<<oo  ;---%%%%>>>>>>>-;---",
"-----==--=----O::::##::::::$$$$$$###oo<<<oo .--=%&&>>>>>>>>%%--=",
"----==--------OOOO:::O:::::$$O$$$$##Ooo<<@oo..&&&&&>>>>>>>>&&%%=",
"-------------==OOO$:OOOO:::OOOO$$$$#OOo<<<oo..&&&&>>>>>>>>>&%%%-",
"---------------OO:#OOOOO###OOOOO$$##OO..<<oo  &&&&&>>%%%%>>%%---",
"-=---=-----;;--O::::OOO::::$$##OO##OOOO.<<<o  &&&&&&>%>%%%>&&  -",
"----------=----O:::::OO:::::$###O#OOOOOO..<<  &&&&&%&>>>>>>&&  -",
"---;;---===----OO$:::##:::::$$####O&&&OOO..< &&&&&%%&&>>>>>&&  *",
"---;;--==----&&OO$$$$##::::::$###&&&>>%%%<..&&&&&&  &&&&&&&&&  +",
";----------&&&&&OO$$###$:::::####&>>>>>%%%<.&&&&&&  &&&&&&&&   +",
"------=---&&>>>>OO##OOO#O#######&&>>>>>>&%%<&&&&&&  &&&&&&&& ---",
"=----==--&&>>>>>&OOO#O#OOOO####O%>>>>>>>&&%%&&&&&&  &&&&  &  ---",
"----==---&>>>>>>&&&OO####OOO#OOO%>>>>>>>>&%%&&&&&&&  &&   & ----",
"-;;------&>>>>>>&&&&X######OOOOO%>>>>>>>>&  &&&&&&&&    --------",
"-;;---;;-%>>>>>>&&&&XXX#######   &>>>>>>>&&           ;;-------=",
"---------%>>>>>&&&&&&XXXX####    &&&>>>>&&&&        ------------",
"------=--  &>>>&&&&&&  -XXX   --  &&&&>>&&&&  --------=-----;---",
"-----==--= &&&&&&&&&& =--=-----=-  &&&&&&&&&  -=-----==--=-----=",
"----==------&&&&&&&&  --------==--  &&&&&&&&  ==----==--------==",
"-----------%%&&&&&&& --------==---  &&&&&&&&  =--------------==-",
"----------%%>&&%>&&----------------  &&&&&&&&  -----------------",
"-=---=-----%>&&%>>&--=-----;;----=-   &&&&&&&  --=---=-----;;---",
"----------=-  ---  -------=--------   &&  %%   -----------=-----",
"---;;---===----*---;;---===----*---;  -   =----*---;;---===----*",
"---;;--==-----++---;;--==-----++---;  -   ----++---;;--==-----++",
";------------*++;------------*++;------------*++;------------*++"
};
