/* XPM */
static char *b06527f885064857da5cd461b23752d2KUzGjaPViv2Ln7Ow[] = {
/* columns rows colors chars-per-pixel */
"32 32 11 1 ",
"  c None",
". c gray25",
"X c #606058",
"o c #D06040",
"O c #F09028",
"+ c #F0F028",
"@ c #B8A040",
"# c #68A898",
"$ c gray72",
"% c #A0C0F8",
"& c #F8F8F8",
/* pixels */
"                                ",
"                                ",
"                                ",
"                                ",
"                                ",
"                                ",
"                                ",
"                                ",
"                                ",
"                                ",
"                                ",
"                                ",
"         ....         ...       ",
"        .%%%#..      .%%%.      ",
"       .%%%%%%#..   .%%%##.     ",
"       .%%%%%%%.o.. .%%#.#.     ",
"      .o%%%%%%%#oOo.#%#.##.     ",
"      .%%%%&.%%#$OOo.##.#.      ",
"      .#%%%.o%##&OOO.#...       ",
"       .##%.o###.&OOo..         ",
"        ..####..%%&oo.          ",
"        .%....%%%#&oo.          ",
"         ..++.%%#.&oo.          ",
"           .++...X$ooX          ",
"          X#X@+++@X$X           ",
"           XXXX@@%X$X           ",
"              XXX%XX            ",
"               X###X            ",
"                XXX             ",
"                                ",
"                                ",
"                                "
};
