/* XPM */
static char *b8c3c948bcaa49b7ce160abfd52e2ac1iDIsaZDNpZN0hdpx[] = {
/* columns rows colors chars-per-pixel */
"32 32 11 1 ",
"  c None",
". c gray25",
"X c #606058",
"o c #D06040",
"O c #F09028",
"+ c #F0F028",
"@ c #B8A040",
"# c #68A898",
"$ c gray72",
"% c #A0C0F8",
"& c #F8F8F8",
/* pixels */
"                                ",
"                                ",
"                                ",
"                                ",
"                                ",
"                                ",
"                                ",
"                                ",
"                                ",
"                                ",
"                                ",
"                                ",
"       ...         ....         ",
"      .%%%.      ..#%%%.        ",
"     .##%%%.   ..#%%%%%%.       ",
"     .#.#%%. ..o.%%%%%%%.       ",
"     .##.#%#.oOo#%%%%%%%o.      ",
"      .#.##.oOO$#%%.&%%%%.      ",
"       ...#.OOO&##%o.%%%#.      ",
"         ..oOO&.###o.%##.       ",
"          .oo&%%..####..        ",
"          .oo&#%%%....%.        ",
"          .oo&.#%%.++..         ",
"          Xoo$X...++.           ",
"           X$X@+++@X#X          ",
"           X$X%@@XXXX           ",
"            XX%XXX              ",
"            X###X               ",
"             XXX                ",
"                                ",
"                                ",
"                                "
};
