/* XPM */
static char *_344a204285b4d35e947df6a461601ddOlR12nAf3kzdvJ3C[] = {
/* columns rows colors chars-per-pixel */
"64 64 20 1 ",
"  c #101010",
". c #632900",
"X c #842900",
"o c #BD6B00",
"O c #CE7B29",
"+ c #6BC079",
"@ c #D69452",
"# c #E6AD5A",
"$ c #FFD66B",
"% c #297384",
"& c #5A9CA5",
"* c #65C686",
"= c #84D099",
"- c #96D7A9",
"; c #ABDFAE",
": c #FFE69C",
"> c #8CC5CE",
", c #B5E6EF",
"< c #D6CECE",
"1 c white",
/* pixels */
"------=---------------=---------------=---------------=---------",
"=----==---;;;---=----==---;;;---=----==---;;;---=----==---;;;---",
"----==--------------==--------------==--------------==----------",
"-;;--------------;;--------------;;--------------;;-------------",
"-;;---;;-------=-;;---;;-------=-;;---;;-------=-;;---;;-------=",
"----------------------------------------------------------------",
"------=-----;--------&&&&&%%;---------=-----;---------=-----;---",
"-----==--=-----=---&&&&&&&%%%%-=-----==--=-----=-----==--=-----=",
"----==--------==-&&&,,,,,,>>>%%%----==--------==----==--------==",
"-------------==-&&,,,,,,>>>>>>>%%------------==--------------==-",
"----------------,,,,,,>>>>>>>>>>%%------------------------------",
"-=---=-----;;-%%,,,,,>>>>>>>>>>>>>%--=-----;;----=---=-----;;---",
"----------=---%>,,,,,>>>>>>>>>>>>>%%------=---------------=-----",
"---;;---===--%%>>>>>>>>>>>>>>>>>>>>%;---===----*---;;---===----*",
"---;;--==----%%>>>>>>>>>&&&>>>>>>>>%%--==-----++---;;--==-----++",
";-----------%&&>>>>>>>>&&>>&&&>>>>&&%--------*++;------------*++",
"------=-----%XX>>>>>>>>>&&& <&&>>>&&  =---------------=---------",
"=----==---;;%XX>>>>>>>>>&   <<&&>&&&  =---;;;---=----==---;;;---",
"----==------%11&>>>>>>>>>    <%&&&&&  --------------==----------",
"-;;---------%XX&>>>>>>>>>   X1%%&&&&  -----------;;-------------",
"-;;---;;----%XX>>>>>>>>>>   X1%%&&&&  ;;-------=-;;---;;-------=",
"-----------%%  >>>>>>>>>>1 XX1%&&&&&  --------------------------",
"------=----%%,>>>>>>>>>>>X XX1&&&&&&  =-----;---------=-----;---",
"-----==--=%%,,>>>>>>>>>>>> XX&&&&&&&  =--=-----=-----==--=-----=",
"----==----- ,>>&>>&>>>>>>>>&&&&&&&&& =--------==----==--------==",
"-----------  %>>>>>>>>>>>>>&&%&&&&&  ---%%%%-==--------------==-",
"------&--&---  >>>>>%%%%%%%XXX&&&&&%--&&>>&&& ------------------",
"-=---=&--&-;;   >>>&%%%%%%%XXX&&&&&%-=>>>>&&  ---=---=-----;;---",
"------%>>&%%  &&   XXOOOOOXXX&&&&  &>>>>>%&& -------------=-----",
"---;&&>>>>>>&  &&&&XXXXXXXX&&&&&  %>>>>>%%&  --*---;;---===----*",
"---;&&>>>>>>>&  &&&&XXXXX&&&&&&% %%>>>>%%&& --++---;;--==-----++",
";---%%>>>>>>>>>> %%&&&&&&&&&  OO<&>>>>>&&&  -*++;------------*++",
"-----%%%>>>>>>>>&&%&        ####%>>>>>&&&& -----------=---------",
"=----==%&&>>>>>&&&&%      #####%%>>>>&&&&  ;;---=----==---;;;---",
"----==--%&&&&&&&&OO#$$$$$$#####%&&>>&&&&  ----------==----------",
"-;;-----%%%&&&&&OOO$$$$$$OOOOOO%&&&&&&&& .-------;%%%%----------",
"-;;---;;--%%&&&&OOOO$$$OOOOOOOO%&&&&&&  ...----=%%%%%%%%-------=",
"------------  &OO::OOOOOO#$$$$OO%&&&&  ooo.---%%>>>>>>&%%-------",
"------=-----;--O:::$##:::::$$$OO#     <ooo.-;%%>>>>>>>&&%---;---",
"-----==--=-----O::::##:::::$$$#####.<<<ooo.%%&&>>>>>>>>>%%-----=",
"----==--------=O::::##:::::$$######.<<<ooo.%&&>>>>>>>>>>%%----==",
"-------------==O::::##:::::$$O$####.<<<oo  &&&&>>>%%%%>>&& --==-",
"---------------OO$::OO:::::$OO$$###o<<<oo  &&&&&&>%>%%%>&& -----",
"-=---=-----;;--OO$$OOOO:::$OO$$$###oo<<oo .&&&&&%&%>>>%>&& ;;---",
"----------=----O::#OOOO###OOO$$$$##Oo<<@oo.&&&&&%%&>>>>&&  -----",
"---;;---===----O:::OOOO:::$$OO$$$##O..<<oo &&&&& &&&&&&&& =----*",
"---;;--==-----+O::::OO:::::$#OO$###O..<<oo &&&&& &&&&&&&  ----++",
";------------&&O$$::##:::::$$#OO#&&&%%%<<o &&&&& &&&&&&& ----*++",
"------=-----&&>OO$$$##:::::$$###&&>>>>%%<< &&&&&  &&&&&  -------",
"=----==---;&>>>>O$$###$::::$###&>>>>>>&&%%&&&&&&&&  &&  --;;;---",
"----==----&&>>>>OO#OOO#O#######&>>>>>>>&%%&&&&&&&&&   ----------",
"-;;-------&&>>>>>OO#O#OOOO####%%>>>>>>>&  &&&&&&    ------------",
"-;;---;;--%%>>>>>&&X#####OOOOO%%>>>>>>>&%        ;;---;;-------=",
"----------%%>>>>>&&XX#####OOOO%%>>>>>>&&&%     -----------------",
"------=---- &>>>&&&&XXX######O  &>>>>>&&&&  ;---------=-----;---",
"-----==--=- &&&&&&&&&&XXXX      &&&&&&&&&& ----=-----==--=-----=",
"----==-----  &&&&&&&&  XXX       &&&&&&&&& ---==----==--------==",
"-----------%%&&&&&&&  -------==-  &&&&&&&&  -==--------------==-",
"----------%%%&&%&&&  ------------ &&&&&&&&& --------------------",
"-=---=-----%>&&%>&  -=-----;;----  &&&&&&&&  ----=---=-----;;---",
"----------=-  --   -------=------- >&  >%   --------------=-----",
"---;;---===----*---;;---===----*--    -   =----*---;;---===----*",
"---;;--==-----++---;;--==-----++---   -   ----++---;;--==-----++",
";------------*++;------------*++;------------*++;------------*++"
};
