/* XPM */
static char *_b776cf917c04d47ddd0ecd5c22f4840I1NDGeOHEWfmhGs6[] = {
/* columns rows colors chars-per-pixel */
"32 32 11 1 ",
"  c None",
". c gray25",
"X c #606058",
"o c #D06040",
"O c #F09028",
"+ c #F0F028",
"@ c #B8A040",
"# c #68A898",
"$ c gray72",
"% c #A0C0F8",
"& c #F8F8F8",
/* pixels */
"                                ",
"                                ",
"                                ",
"                                ",
"                                ",
"                                ",
"                                ",
"                                ",
"                                ",
"                                ",
"                                ",
"                                ",
"                                ",
"                   ....         ",
"       ...       ..#%%%.        ",
"      .%%%.    ..#%%%%%%.       ",
"     .##%%%. ..o.%%%%%%%.       ",
"     .#.#%%..oOo#%%%%%%%o.      ",
"     .##.##.oOO$#%%.&%%%%.      ",
"      .#.##.OOO&##%o.%%%#.      ",
"       ..#.oOO&.###o.%##.       ",
"         ..oo&%%..####..        ",
"          .oo&#%%%....%.        ",
"          .oo&.#%%.++..         ",
"          Xoo$X...+@.X          ",
"           X$X@@@@XXX           ",
"            XX%XXX              ",
"            X###X               ",
"             XXX                ",
"                                ",
"                                ",
"                                "
};
