/* XPM */
static char *cc4cc04fb0ca485d8bec6593049f7f8ekCrSphkAV9mnLCie[] = {
/* columns rows colors chars-per-pixel */
"64 64 21 1 ",
"  c #282818",
". c #202020",
"X c #303820",
"o c #484028",
"O c #404830",
"+ c #504838",
"@ c #685838",
"# c #486030",
"$ c #587830",
"% c #456B4B",
"& c #506840",
"* c #887040",
"= c #709820",
"- c #56885C",
"; c #5FB177",
": c #6BC079",
"> c #88B830",
", c #65C686",
"< c #84D099",
"1 c #96D7A9",
"2 c #ABDFAE",
/* pixels */
"111111<111111111111111<111111111111111<111111111111111<111111111",
"<1111<<111222111<1111<<111222111<1111<<111222111<1111<<111222111",
"1111<<11111111111111<<11111111111111<<11111111111111<<1111111111",
"1221111111111111122111111OOO=====OO11111111111111221111111111111",
"122111221111111<122111221OO======OOO11221111111<122111221111111<",
"111111111111111111111111O====>>>===OO111111111111111111111111111",
"111111<11111211111111OOO==>>>>>>>>==OOO111112111111111<111112111",
"11111<<11<11111<11111O====>>>>>>>>>===OO1<11111<11111<<11<11111<",
"1111<<11111111<<111OO====>>>>>>>>>>=====O11111<<1111<<11111111<<",
"1111111111111<<111OO=====>>>>>>>>>>>====OO111<<11111111111111<<1",
"1111111111111111OOOO====>>>>>>>>>>>>====OOOO11111111111111111111",
"1<111<111112211O$$OO$===>>>>>>>>>>>>===$OO$$O1111<111<1111122111",
"1111111111<111O$$$&$$===>>>>>>>>>>>>===$$$&$$O111111111111<11111",
"11122111<<<111O$$$&=====>>>>>>>>>>>>=====&&$$O1,11122111<<<1111,",
"1112211<<11111O$$$&======>>>>>>>>>>======&&$$O::1112211<<11111::",
"2111111111111OO#$$&======>>>>>>>>>>======&$$#OO:2111111111111,::",
"111111<1111XOO$$$$$=$=====>>>>>>>>=====$=$$$$$OOX11111<111111111",
"<1111<<11XXXO$$$$$$=$=======>>>>=======$=$$$$$$OOXX11<<111222111",
"1111<<11XXXOO$$$$$$$====================$$$$$$$$OXXX<<1111111111",
"12211111X###O$$$$$$$====================$$$$$$$$###XX11111111111",
"1221112X######$$$$$$====================$$$$$$######X1221111111<",
"1111111X#O###$$$$$$$$====$========$====$$$$##$$###O#XX1111111111",
"111111X#####$$$$#$$$$$$$=$========$=$$$$$$$##$$$$####X<111112111",
"11111<X####$$$$###$$$$$$$==========$$$$$$$$$$$$$$####X<11<11111<",
"1111<<X####$$$$##$$$$$$$$$=========$$$$$$$$$$$$$$####X11111111<<",
"1111111XO###$$$$$$$$$$$$$$$$====$$$$$$##$$$$$$$$$##OXX1111111<<1",
"1111111XOO##$$#$$$$$$$$$$$$$$$$$$$$$$$##$$$$$#$$##OOX11111111111",
"1<111<1XX####$#$$$$$$$$$$$$$$$$$$$$$$$$$$$$$$$$#####X<1111122111",
"1111111X######$$$$$$$$$$$$$$$$$$$$$$$$$$$$$$$$######X11111<11111",
"111221XX######$$$$$$##$$$$$$$$$$$$$$$$$$$$$$$$#######X11<<<1111,",
"111221X########$$##$##$$$$$$$$$$$$$$$$$$$##$$########X1<<11111::",
"21111 ###########$$$$$$$$$$$$$$$$$$$#$$$$$############.111111,::",
"11111 ############$$$$$$$$$$$$$$$$$###$$$$$########### 111111111",
"<1111 ############$$$$$$$$$$####$$$$#$$$$$$########### 111222111",
"1111< ############$$$$$$$$$$$###$$$$$$$$$$############ 111111111",
"12211 O############$$$##$$$$$###$$$$##$$$############O 111111111",
"12211 OO#################$$$####$$$$################XO.21111111<",
"111111 OOO########################################OOOO1111111111",
"111111 OOOO##O#################################O#OOOO <111112111",
"11111<< OOOX####################################XOOO  <11<11111<",
"1111<<1   OOX########OO##############OO#########XOOO <11111111<<",
"111111111  OOOO#######OO############OO########OOO 11111111111<<1",
"1111111111 OOOOO######OOO##########OOO######OOOOO 11111111111111",
"1<111<1111  OXOOO####OOOOOO######OOOOOOO###OOOOXO 111<1111122111",
"1111111111<  OOOOXXOOOOOOOOO####OOOOOOOOOOXOOOO  111111111<11111",
"11122111<<;;  OOXXOOOOOOOOOOOOOOOOOOOOOOOOXXOOO ;;122111<<<1111,",
"1112211<<1;;;     OOOOOXOOOOOOOOOOOOOXOOOOO    ;;;12211<<11111::",
"2111111111;;;;--     OOOOOOOOOOOOOOOOOO     ---;;;11111111111,::",
"111111<111;;;---%%     OOOOOOOOOOOOOO     %%----;;1111<111111111",
"<1111<<111;;;---%%% +** OOXXOOOOOXOO  *+ %%%----;;111<<111222111",
"1111<<1111;;;---%% ++@**    OOOO     *@++ %%----;;11<<1111111111",
"1221111111;;;---%% ++oo**@+      +@***o++  %----;;21111111111111",
"1221112211;;;---%%     **+++@@@@@++***    %%---;;;2111221111111<",
"1111111111;;;;---%%%   @@++@@@@@@++*@    %%----;;;11111111111111",
"111111<111;;;;----%%%%  @@@@@++@@@@@@ %%%%%---;;;;1111<111112111",
"11111<<11<1;;;;-----%%% +@@      @@@  %%%-----;;;1111<<11<11111<",
"1111<<11111;;;;;-----%%     %%%%     %%-----;;;;;111<<11111111<<",
"111111111111;;;;;-----%%% %%%%%%%% %%%-----;;;;;1111111111111<<1",
"1111111111111;;;;;-----%%%%%%%%%%%%%%-----;;;;;11111111111111111",
"1<111<111112211;;;;;;-------%%%%-------;;;;;;1111<111<1111122111",
"1111111111<111111;;;;;;;;----------;;;;;;;;111111111111111<11111",
"11122111<<<1111,11122;;;;;;;;;;;;;;;;;;;<<<1111,11122111<<<1111,",
"1112211<<11111::11122;;;;;;;;;;;;;;;;;;<<11111::1112211<<11111::",
"2111111111111,::2111111111111,::2111111111111,::2111111111111,::"
};
