/* XPM */
static char *_0d0e2415f134489eb59afe42accf2a8wbx0kWHjuA9HJtfP[] = {
/* columns rows colors chars-per-pixel */
"64 64 21 1 ",
"  c #282818",
". c #202020",
"X c #303820",
"o c #484028",
"O c #404830",
"+ c #504838",
"@ c #685838",
"# c #486030",
"$ c #587830",
"% c #456B4B",
"& c #506840",
"* c #887040",
"= c #709820",
"- c #56885C",
"; c #5FB177",
": c #6BC079",
"> c #88B830",
", c #65C686",
"< c #84D099",
"1 c #96D7A9",
"2 c #ABDFAE",
/* pixels */
"111111<111111111111111<111111111111111<111111111111111<111111111",
"<1111<<111222111<1111<<111222111<1111<<111222111<1111<<111222111",
"1111<<11111111111111<<11111111111111<<11111111111111<<1111111111",
"1221111111111111122111111111111112211111111111111221111111111111",
"122111221111111<122111221111111<122111221111111<122111221111111<",
"1111111111111111111111111111111111111111111111111111111111111111",
"111111<111112111111111<111112111111111<111112111111111<111112111",
"11111<<11<11111<11111<<11<11111<11111<<11<11111<11111<<11<11111<",
"1111<<11111111<<1111<<11111111<<1111<<11111111<<1111<<11111111<<",
"1111111111111<<111111111111OO====OO1111111111<<11111111111111<<1",
"11111111111111111111111111O===>>===O1111111111111111111111111111",
"1<111<11111221111<111<11OO==>>>>>>==OO11111221111<111<1111122111",
"1111111111<111111111111O===>>>>>>>>===O111<111111111111111<11111",
"11122111<<<1111,111221O====>>>>>>>>====O<<<1111,11122111<<<1111,",
"1112211<<11111::1112OOO===>>>>>>>>>>===OOO1111::1112211<<11111::",
"2111111111111,::211O$$O$==>>>>>>>>>>==$O$$O11,::2111111111111,::",
"111111<11111111111O$$&$===>>>>>>>>>>===$&$$O1111111111<111111111",
"<1111<<111222111<1O$$&=====>>>>>>>>=====&$$O2111<1111<<111222111",
"1111<<111111111111O#$&=====>>>>>>>>=====&$#O11111111<<1111111111",
"1221111111111111XO$$$$=$====>>>>>>====$=$$$$OX111221111111111111",
"12211122111111XXO$$$$$$=======>>=======$$$$$$OXX122111221111111<",
"1111111111111X##O$$$$$$================$$$$$$O##X111111111111111",
"111111<111112X####$$$$$================$$$$$####X11111<111112111",
"11111<<11<11X#O##$$$$$$$===$======$===$$$##$$##O#X111<<11<11111<",
"1111<<111111X###$$$##$$$$$$========$$$$$$##$$$###X11<<11111111<<",
"111111111111X###$$$##$$$$$$========$$$$$$$$$$$###X11111111111<<1",
"111111111111XO##$$$$$$$$$$$$$====$$$$##$$$$$$$##OX11111111111111",
"1<111<1111122XO##$#$$$$$$$$$$$$$$$$$$##$$$$#$##OX<111<1111122111",
"1111111111<11X####$$$$$$$$$$$$$$$$$$$$$$$$$$####X111111111<11111",
"11122111<<<1X#####$$$$$##$$$$$$$$$$$$$$$$$$$#####X122111<<<1111,",
"1112211<<111X######$$#$##$$$$$$$$$$$$$$$#$$######X12211<<11111::",
"21111111111 #########$$$$$$$$$$$$$$##$$$$#########.1111111111,::",
"111111<1111 #########$$$$$$$$#$$#$$##$$$$######### 111<111111111",
"<1111<<1112 #########$$$$$$$$$##$$$$$$$$$######### 11<<111222111",
"1111<<11111 O#########$$$#$$$$##$$$$#$$$#########O 1<<1111111111",
"12211111111 OX#############$$####$$#############XO.1111111111111",
"122111221111 OOO#O##########################O#OOO 2111221111111<",
"111111111111 OOOX############################XOOO 11111111111111",
"111111<111112  OX#######O############O#######XOO 11111<111112111",
"11111<<11<11111 OOO######O##########O######OOO <11111<<11<11111<",
"1111<<11111111< OXOOO###OOOO######OOOO###OOOXO <1111<<11111111<<",
"1111111111111<<1 OOOOXOOOOOOO####OOOOOOOXOOOO <11111111111111<<1",
"111111111111111;; OOXOOOOOOOOOOOOOOOOOOOOXOO ;;11111111111111111",
"1<111<111112211;;;   OOOOXOOOOOOOOOOXOOOO   ;;;11<111<1111122111",
"1111111111<1111;;---%    OOOOOOOOOOOO    %---;;11111111111<11111",
"11122111<<<1111;;---%% +* OOXOOOOXOO *+ %%---;;,11122111<<<1111,",
"1112211<<11111:;;---% ++@*   OOOO   *@++ %---;;:1112211<<11111::",
"2111111111111,:;;---% ++o**@+    +@**o++ %---;;:2111111111111,::",
"111111<11111111;;;--%%   @*++@@@@++*@   %%--;;;1111111<111111111",
"<1111<<11122211;;;---%%%% @@@@++@@@@ %%%%---;;;1<1111<<111222111",
"1111<<1111111111;;;----%% +@+    +@+ %%----;;;111111<<1111111111",
"1221111111111111;;;;----%%   %%%%   %%----;;;;111221111111111111",
"122111221111111<1;;;;----%%%%%%%%%%%%----;;;;11<122111221111111<",
"1111111111111111111;;;;;-----%%%%-----;;;;;111111111111111111111",
"111111<11111211111111;;;;;;--------;;;;;;1112111111111<111112111",
"11111<<11<11111<11111<<1;;;;;;;;;;;;;;<11<11111<11111<<11<11111<",
"1111<<11111111<<1111<<11111111<<1111<<11111111<<1111<<11111111<<",
"1111111111111<<11111111111111<<11111111111111<<11111111111111<<1",
"1111111111111111111111111111111111111111111111111111111111111111",
"1<111<11111221111<111<11111221111<111<11111221111<111<1111122111",
"1111111111<111111111111111<111111111111111<111111111111111<11111",
"11122111<<<1111,11122111<<<1111,11122111<<<1111,11122111<<<1111,",
"1112211<<11111::1112211<<11111::1112211<<11111::1112211<<11111::",
"2111111111111,::2111111111111,::2111111111111,::2111111111111,::"
};
