/* XPM */
static char *_f26cbe44a144c598f8cc8e56b772763kjav5YWpD7Er8MJW[] = {
/* columns rows colors chars-per-pixel */
"32 32 20 1 ",
"  c None",
". c #486818",
"X c #405028",
"o c #404030",
"O c #484038",
"+ c #504838",
"@ c #605038",
"# c #486020",
"$ c #587820",
"% c #386058",
"& c #705840",
"* c #886840",
"= c #608820",
"- c #689020",
"; c #709828",
": c #308068",
"> c #409878",
", c #80A830",
"< c #48A888",
"1 c #68D0A0",
/* pixels */
"                                ",
"            ##---##             ",
"           o-;;;;;-#            ",
"         o-;;;,,,;;;-o          ",
"         --,,;,,,;,,--          ",
"       o--;,,,;;;,,,;--o        ",
"      o#--;,,,;;;,,,;--#o       ",
"      $$;;;;,,,;,,,;;;;$$       ",
"     o$$;;;;;,;;;,;;;;;$$o      ",
"     $$$-;;;;;;;;;;;;;-$$$      ",
"    o$==$$#-;;;;;;;-#$$==$o     ",
"    #$==$$#---;;;---#$$==$#     ",
"   o.X$$=$$---;;;---$$=$$X.     ",
"  oX..$$===$#$-;-$#$===$$..Xo   ",
"  XX...X==$$$$$$$$$$$==X...XX   ",
"  Xo....$$$$=$$$$$=$$$$....oX   ",
"  Xo....$X$===$$$===$X$....oX   ",
"  oX##...$$====$====$$...##Xo   ",
"  oXo#....X$$=$$$=$$X....#oXo   ",
"   oXo.....XX$$$$$XX.....oXo    ",
"    XXo#...#.......#...#oXX     ",
"    #XXX...#.......#...XXX#     ",
"    1XXXX##o#.....#o##XXXX1     ",
"    1oXoXXXX#XXXXX#XXXXoXo1     ",
"    111<XXXX#XXXXX#XXXX<111     ",
"    111>:oX##XXXXX##Xo:>111     ",
"    111::O@++o###o++@O::111     ",
"    11<:O@@@+@@@@@+@@@O:<11     ",
"    11<:%++++@@@@@++++%:<11     ",
"    111:::::%&***&%:::::111     ",
"    111<<>::::&*&::::><<111     ",
"    1111111<<<<<<<<<1111111     "
};
