/* XPM */
static char *_7d41d19acca466cf07adba64a1f27f9N383EfEnyK375HyV[] = {
/* columns rows colors chars-per-pixel */
"64 64 17 1 ",
"  c #302020",
". c #302820",
"X c #305838",
"o c #407038",
"O c #585040",
"+ c #456B4B",
"@ c #787050",
"# c #388830",
"$ c #40A828",
"% c #70C838",
"& c #56885C",
"* c #5FB177",
"= c #6BC079",
"- c #65C686",
"; c #84D099",
": c #96D7A9",
"> c #ABDFAE",
/* pixels */
"::::::;:::::::::::::::;:::::::::::::::;:::::::::::::::;:::::::::",
";::::;;:::>>>:::;::::;;:::>>>:::;::::;;:::>>>:::;::::;;:::>>>:::",
"::::;;::::::::::::::XX::::::::::::::;;::XX::::::::::;;::::::::::",
":>>::::::::::::::>>XXXX::::::::::>>::::XXXX::::::>>:::::::::::::",
":>>:::>>:::::::;:>>X$$$XX::::::;:>>::XX$$$X::::;:>>:::>>:::::::;",
":::::::::::::::::::X$$$$$X::::::::::X$$$$$X:::::::::::::::::::::",
"::::::;:::::>::::::X$$$%$$X:>::::::X$$%$$$X:>:::::::::;:::::>:::",
":::::;;::;:::::;:::XX%%%%%XX:::;::XX%%%%%XX::::;:::::;;::;:::::;",
"::::;;::::::::;;::::X%%%%%%XX:;;:XX%%%%%%X::::;;::::;;::::::::;;",
"::::::::::::XXXXXXX:X%%%%$$$XX;:XX$$$%%%%X:XXXXXXXXX:::::::::;;:",
"::::::::XXXXooooo##XX$%%$$$$$X::X$$$$$%%$XX##oooooXXXX::::::::::",
":;:::;XXXoooooooo####o$$$$$$$XXXX$$$$$$$o####ooooooooXXX:::>>:::",
"::::::::XXXXooo######oo$$$$$$$##$$$$$$$oo######oooXXXX::::;:::::",
":::>>:::;;XXXXo######oo$$$$$$$##$$$$$$$oo######oXXXX>:::;;;::::-",
":::>>::;;::XXXXXoooo#ooo$$$$$$##$$$$$$ooo#ooooXXXXX>>::;;:::::==",
">::::::oooo#%%%%%%%#XXXXo$$$$####$$$$oXXXX#%%%%%%%#oooo::::::-==",
"::::oooo$$$%%%%%%%$$$$$XX#$$$####$$$#XX$$$$$%%%%%%%$$$oooo::::::",
";:oo$$$$$$%%%%%%%%$$$$$$$##oo####oo##$$$$$$$%%%%%%%%$$$$$$oo>:::",
"::oo            #$$$$$$$##############$$$$$$$#            oo::::",
":>oo             $$$$$$$##############$$$$$$$             oo::::",
":>>:::>>:::: XXXX   #$$####oo####oo####$$#   XXXX >:::>>:::::::;",
"::::::::::   XXXXXXX   o##ooo####ooo##o   XXXXXXX   ::::::::::::",
"::::::;:XXoXXXXXXXX ooooXXX$$####$$XXXoooo XXXXXXXXoXX;:::::>:::",
":::::;;XoooXXXXXX  oooooooX$$$$$$$$Xooooooo  XXXXXXoooX::;:::::;",
"::::;;XoooooXXX    oooooooX$$$$$$$$Xooooooo    XXXoooooX::::::;;",
"::::XXooooooXX  ####oooooX#$$$$$$$$#Xooooo####  XXooooooXX:::;;:",
"::::XooooX     #####ooooo %%$$$$$$%% ooooo#####     XooooX::::::",
":;::X   :::>oo#######oooo %%%%%%%%%% oooo#######oo:::;   X:>>:::",
"::::::::::;:###########oo %%%%%%%%%% oo###########::::::::;:::::",
":::>>:::;;;X###########o  %%%%%%%%%%  o###########X>>:::;;;::::-",
":::>>::;;XXooo########    $$%%%%%%$$    ########oooXX::;;:::::==",
">:::::::XXooooo#####   XXX $$$$$$$$ XXXX  #####oooooXX:::::::-==",
"::::::;:Xoooooooo## oooXXX $$$$$$$$ ooXXXX ##ooooooooX;:::::::::",
";::::;; oooooooo   oooooo  $$$$$$$$  ooXXXo   oooooooo :::>>>:::",
"::::;;: oooooooo ooooo      $$$$$$      XXooo oooooooo :::::::::",
":>>::: oooooo   oooo     .OO $$$$ OO.     oooo   oooooo ::::::::",
":>>:  ooooo    o oo  :>>:.OO  $$  OO.:>>:  XX      ooooo  :::::;",
":::: ooo  X:  ooo::::::::.@OO $$ OO@.:::::::: XX  :X  ooo ::::::",
"::::    ::::>    :::::;:**.@@    @@.**;:::::>    :::::    ::>:::",
":::::;;::;:::::;:::::;****...@@@@...****:;:::::;:::::;;::;:::::;",
"::::;;::::::::;;::::******..OOOOOO..******::::;;::::;;::::::::;;",
":::::::::::::;;:::**&&&&&&.OO....OO.&&&&&&**:;;::::::::::::::;;:",
":::::::::::::::::*&&&&&&&..OO....OO..&&&&&&&*:::::::::::::::::::",
":;:::;:::::>>::::*&&&&+++.O@@@@@@@@O.+++&&&&*::::;:::;:::::>>:::",
"::::::::::;::::**&&&+++++.OOO@@@@OOO.+++++&&&**:::::::::::;:::::",
":::>>:::;;;:::*&&&&+++++....OOOOOO....+++++&&&&*:::>>:::;;;::::-",
":::>>::;;:::::*&&&&+++++.O..........O.+++++&&&&*:::>>::;;:::::==",
">::::::::::::**&&&+++++..O@@O....O@@O..+++++&&&**::::::::::::-==",
"::::::;::::::*&&&&++++..@@@@@@@@@@@@@@..++++&&&&*:::::;:::::::::",
";::::;;:::>>**&&&++++..@@@@@@@@@@@@@@@@..++++&&&**:::;;:::>>>:::",
"::::;;::::::**&&&+++++...@@@@@OO@@@@@...+++++&&&**::;;::::::::::",
":>>::::::::::*&&&&+++++...@@OOOOOO@@...+++++&&&&*>>:::::::::::::",
":>>:::>>::::::*&&&&++++..OOOO....OOOO..++++&&&&*:>>:::>>:::::::;",
"::::::::::::::*&&&&&++++.@O...++...O@.++++&&&&&*::::::::::::::::",
"::::::;:::::>:**&&&&&+++....++++++....+++&&&&&**::::::;:::::>:::",
":::::;;::;:::::**&&&&&&&++++++++++++++&&&&&&&**;:::::;;::;:::::;",
"::::;;::::::::;;:*&&&&&&&&++++++++++&&&&&&&&*:;;::::;;::::::::;;",
":::::::::::::;;:::*&&&&&&&&&&&&&&&&&&&&&&&&*:;;::::::::::::::;;:",
":::::::::::::::::::**&&&&&&&&&&&&&&&&&&&&**:::::::::::::::::::::",
":;:::;:::::>>::::;:::*****&&&&&&&&&&*****::>>::::;:::;:::::>>:::",
"::::::::::;::::::::::::::************:::::;:::::::::::::::;:::::",
":::>>:::;;;::::-:::>>:::;;**********>:::;;;::::-:::>>:::;;;::::-",
":::>>::;;:::::==:::>>::;;:::::==:::>>::;;:::::==:::>>::;;:::::==",
">::::::::::::-==>::::::::::::-==>::::::::::::-==>::::::::::::-=="
};
